<mxfile host="65bd71144e">
    <diagram id="jrNGx-gabtCFgvl1K_JJ" name="Klassendiagramm">
        <mxGraphModel dx="2318" dy="2112" grid="0" gridSize="10" guides="1" tooltips="1" connect="1" arrows="1" fold="1" page="0" pageScale="1" pageWidth="850" pageHeight="1100" math="0" shadow="0">
            <root>
                <mxCell id="0"/>
                <mxCell id="1" parent="0"/>
                <mxCell id="NY4owkkx7TGqezFvGEzK-155" value="Indoor Navigation" style="shape=umlFrame;whiteSpace=wrap;html=1;pointerEvents=0;width=141;height=25;" parent="1" vertex="1">
                    <mxGeometry x="-1040" y="-794" width="721" height="1159" as="geometry"/>
                </mxCell>
                <mxCell id="98" value="html5-qrcode" style="shape=umlFrame;whiteSpace=wrap;html=1;width=137;height=26;movable=1;resizable=1;rotatable=1;deletable=1;editable=1;locked=0;connectable=1;" parent="1" vertex="1">
                    <mxGeometry x="639" y="-640" width="374" height="209" as="geometry"/>
                </mxCell>
                <mxCell id="14" value="Fuse" style="shape=umlFrame;whiteSpace=wrap;html=1;movable=1;resizable=1;rotatable=1;deletable=1;editable=1;locked=0;connectable=1;" parent="1" vertex="1">
                    <mxGeometry x="639" y="-399" width="300" height="282" as="geometry"/>
                </mxCell>
                <mxCell id="43" value="Bootstrap" style="shape=umlFrame;whiteSpace=wrap;html=1;movable=1;resizable=1;rotatable=1;deletable=1;editable=1;locked=0;connectable=1;" parent="1" vertex="1">
                    <mxGeometry x="639" y="-881" width="389" height="209" as="geometry"/>
                </mxCell>
                <mxCell id="47bcrhxyphqd8BRHlcOZ-18" value="Leaflet" style="shape=umlFrame;whiteSpace=wrap;html=1;movable=1;resizable=1;rotatable=1;deletable=1;editable=1;connectable=1;locked=0;" parent="1" vertex="1">
                    <mxGeometry x="-206" y="-881" width="809" height="1250" as="geometry"/>
                </mxCell>
                <mxCell id="-IxNRpvLPGeOnTa2XRwh-1" value="Node // Knoten" style="swimlane;fontStyle=1;align=center;verticalAlign=top;childLayout=stackLayout;horizontal=1;startSize=26;horizontalStack=0;resizeParent=1;resizeParentMax=0;resizeLast=0;collapsible=1;marginBottom=0;movable=1;resizable=1;rotatable=1;deletable=1;editable=1;locked=0;connectable=1;" parent="1" vertex="1">
                    <mxGeometry x="-533" y="-113" width="186" height="216" as="geometry"/>
                </mxCell>
                <mxCell id="2" value="+ latlng: LatLng" style="text;strokeColor=none;fillColor=none;align=left;verticalAlign=top;spacingLeft=4;spacingRight=4;overflow=hidden;rotatable=1;points=[[0,0.5],[1,0.5]];portConstraint=eastwest;movable=1;resizable=1;deletable=1;editable=1;locked=0;connectable=1;" parent="-IxNRpvLPGeOnTa2XRwh-1" vertex="1">
                    <mxGeometry y="26" width="186" height="26" as="geometry"/>
                </mxCell>
                <mxCell id="79ByzgNNwlD58r3_2kEv-2" value="+ links: Number[]" style="text;strokeColor=none;fillColor=none;align=left;verticalAlign=top;spacingLeft=4;spacingRight=4;overflow=hidden;rotatable=1;points=[[0,0.5],[1,0.5]];portConstraint=eastwest;movable=1;resizable=1;deletable=1;editable=1;locked=0;connectable=1;" parent="-IxNRpvLPGeOnTa2XRwh-1" vertex="1">
                    <mxGeometry y="52" width="186" height="26" as="geometry"/>
                </mxCell>
                <mxCell id="47bcrhxyphqd8BRHlcOZ-35" value="+ index: Number" style="text;strokeColor=none;fillColor=none;align=left;verticalAlign=top;spacingLeft=4;spacingRight=4;overflow=hidden;rotatable=1;points=[[0,0.5],[1,0.5]];portConstraint=eastwest;movable=1;resizable=1;deletable=1;editable=1;locked=0;connectable=1;" parent="-IxNRpvLPGeOnTa2XRwh-1" vertex="1">
                    <mxGeometry y="78" width="186" height="26" as="geometry"/>
                </mxCell>
                <mxCell id="-IxNRpvLPGeOnTa2XRwh-3" value="" style="line;strokeWidth=1;fillColor=none;align=left;verticalAlign=middle;spacingTop=-1;spacingLeft=3;spacingRight=3;rotatable=1;labelPosition=right;points=[];portConstraint=eastwest;strokeColor=inherit;movable=1;resizable=1;deletable=1;editable=1;locked=0;connectable=1;" parent="-IxNRpvLPGeOnTa2XRwh-1" vertex="1">
                    <mxGeometry y="104" width="186" height="8" as="geometry"/>
                </mxCell>
                <mxCell id="85" value="&lt;&lt;Create&gt;&gt; Node(latlng: Latlng)" style="text;strokeColor=none;fillColor=none;align=left;verticalAlign=top;spacingLeft=4;spacingRight=4;overflow=hidden;rotatable=1;points=[[0,0.5],[1,0.5]];portConstraint=eastwest;movable=1;resizable=1;deletable=1;editable=1;locked=0;connectable=1;" parent="-IxNRpvLPGeOnTa2XRwh-1" vertex="1">
                    <mxGeometry y="112" width="186" height="26" as="geometry"/>
                </mxCell>
                <mxCell id="-IxNRpvLPGeOnTa2XRwh-4" value="+ clickOnNode(Event)" style="text;strokeColor=none;fillColor=none;align=left;verticalAlign=top;spacingLeft=4;spacingRight=4;overflow=hidden;rotatable=1;points=[[0,0.5],[1,0.5]];portConstraint=eastwest;movable=1;resizable=1;deletable=1;editable=1;locked=0;connectable=1;" parent="-IxNRpvLPGeOnTa2XRwh-1" vertex="1">
                    <mxGeometry y="138" width="186" height="26" as="geometry"/>
                </mxCell>
                <mxCell id="3" value="+ addEdge(target: Node)" style="text;strokeColor=none;fillColor=none;align=left;verticalAlign=top;spacingLeft=4;spacingRight=4;overflow=hidden;rotatable=1;points=[[0,0.5],[1,0.5]];portConstraint=eastwest;movable=1;resizable=1;deletable=1;editable=1;locked=0;connectable=1;" parent="-IxNRpvLPGeOnTa2XRwh-1" vertex="1">
                    <mxGeometry y="164" width="186" height="26" as="geometry"/>
                </mxCell>
                <mxCell id="4" value="+ clickOnEdge(Event)" style="text;strokeColor=none;fillColor=none;align=left;verticalAlign=top;spacingLeft=4;spacingRight=4;overflow=hidden;rotatable=1;points=[[0,0.5],[1,0.5]];portConstraint=eastwest;movable=1;resizable=1;deletable=1;editable=1;locked=0;connectable=1;" parent="-IxNRpvLPGeOnTa2XRwh-1" vertex="1">
                    <mxGeometry y="190" width="186" height="26" as="geometry"/>
                </mxCell>
                <mxCell id="47bcrhxyphqd8BRHlcOZ-1" value="L.marker" style="swimlane;fontStyle=1;align=center;verticalAlign=top;childLayout=stackLayout;horizontal=1;startSize=26;horizontalStack=0;resizeParent=1;resizeParentMax=0;resizeLast=0;collapsible=1;marginBottom=0;movable=1;resizable=1;rotatable=1;deletable=1;editable=1;locked=0;connectable=1;" parent="1" vertex="1">
                    <mxGeometry x="-181" y="-238" width="160" height="216" as="geometry"/>
                </mxCell>
                <mxCell id="47bcrhxyphqd8BRHlcOZ-2" value="- latlng: LatLng" style="text;strokeColor=none;fillColor=none;align=left;verticalAlign=top;spacingLeft=4;spacingRight=4;overflow=hidden;rotatable=1;points=[[0,0.5],[1,0.5]];portConstraint=eastwest;movable=1;resizable=1;deletable=1;editable=1;locked=0;connectable=1;" parent="47bcrhxyphqd8BRHlcOZ-1" vertex="1">
                    <mxGeometry y="26" width="160" height="26" as="geometry"/>
                </mxCell>
                <mxCell id="47bcrhxyphqd8BRHlcOZ-5" value="- icon: Icon" style="text;strokeColor=none;fillColor=none;align=left;verticalAlign=top;spacingLeft=4;spacingRight=4;overflow=hidden;rotatable=1;points=[[0,0.5],[1,0.5]];portConstraint=eastwest;movable=1;resizable=1;deletable=1;editable=1;locked=0;connectable=1;" parent="47bcrhxyphqd8BRHlcOZ-1" vertex="1">
                    <mxGeometry y="52" width="160" height="26" as="geometry"/>
                </mxCell>
                <mxCell id="47bcrhxyphqd8BRHlcOZ-22" value="- ..." style="text;strokeColor=none;fillColor=none;align=left;verticalAlign=top;spacingLeft=4;spacingRight=4;overflow=hidden;rotatable=1;points=[[0,0.5],[1,0.5]];portConstraint=eastwest;movable=1;resizable=1;deletable=1;editable=1;locked=0;connectable=1;" parent="47bcrhxyphqd8BRHlcOZ-1" vertex="1">
                    <mxGeometry y="78" width="160" height="26" as="geometry"/>
                </mxCell>
                <mxCell id="47bcrhxyphqd8BRHlcOZ-3" value="" style="line;strokeWidth=1;fillColor=none;align=left;verticalAlign=middle;spacingTop=-1;spacingLeft=3;spacingRight=3;rotatable=1;labelPosition=right;points=[];portConstraint=eastwest;strokeColor=inherit;movable=1;resizable=1;deletable=1;editable=1;locked=0;connectable=1;" parent="47bcrhxyphqd8BRHlcOZ-1" vertex="1">
                    <mxGeometry y="104" width="160" height="8" as="geometry"/>
                </mxCell>
                <mxCell id="90" value="&lt;&lt;Create&gt;&gt; marker(latlng)" style="text;strokeColor=none;fillColor=none;align=left;verticalAlign=top;spacingLeft=4;spacingRight=4;overflow=hidden;rotatable=1;points=[[0,0.5],[1,0.5]];portConstraint=eastwest;movable=1;resizable=1;deletable=1;editable=1;locked=0;connectable=1;" parent="47bcrhxyphqd8BRHlcOZ-1" vertex="1">
                    <mxGeometry y="112" width="160" height="26" as="geometry"/>
                </mxCell>
                <mxCell id="4031oEJd7GCodYw7584o-1" value="+ addTo(Map)" style="text;strokeColor=none;fillColor=none;align=left;verticalAlign=top;spacingLeft=4;spacingRight=4;overflow=hidden;rotatable=1;points=[[0,0.5],[1,0.5]];portConstraint=eastwest;movable=1;resizable=1;deletable=1;editable=1;locked=0;connectable=1;" parent="47bcrhxyphqd8BRHlcOZ-1" vertex="1">
                    <mxGeometry y="138" width="160" height="26" as="geometry"/>
                </mxCell>
                <mxCell id="36" value="+ setLatLng(latlng: LatLng)" style="text;strokeColor=none;fillColor=none;align=left;verticalAlign=top;spacingLeft=4;spacingRight=4;overflow=hidden;rotatable=1;points=[[0,0.5],[1,0.5]];portConstraint=eastwest;movable=1;resizable=1;deletable=1;editable=1;locked=0;connectable=1;" parent="47bcrhxyphqd8BRHlcOZ-1" vertex="1">
                    <mxGeometry y="164" width="160" height="26" as="geometry"/>
                </mxCell>
                <mxCell id="47bcrhxyphqd8BRHlcOZ-23" value="+ ..." style="text;strokeColor=none;fillColor=none;align=left;verticalAlign=top;spacingLeft=4;spacingRight=4;overflow=hidden;rotatable=1;points=[[0,0.5],[1,0.5]];portConstraint=eastwest;movable=1;resizable=1;deletable=1;editable=1;locked=0;connectable=1;" parent="47bcrhxyphqd8BRHlcOZ-1" vertex="1">
                    <mxGeometry y="190" width="160" height="26" as="geometry"/>
                </mxCell>
                <mxCell id="47bcrhxyphqd8BRHlcOZ-6" value="L.icon" style="swimlane;fontStyle=1;align=center;verticalAlign=top;childLayout=stackLayout;horizontal=1;startSize=26;horizontalStack=0;resizeParent=1;resizeParentMax=0;resizeLast=0;collapsible=1;marginBottom=0;movable=1;resizable=1;rotatable=1;deletable=1;editable=1;locked=0;connectable=1;" parent="1" vertex="1">
                    <mxGeometry x="74" y="-421" width="160" height="164" as="geometry"/>
                </mxCell>
                <mxCell id="47bcrhxyphqd8BRHlcOZ-7" value="+ iconUrl: String" style="text;strokeColor=none;fillColor=none;align=left;verticalAlign=top;spacingLeft=4;spacingRight=4;overflow=hidden;rotatable=1;points=[[0,0.5],[1,0.5]];portConstraint=eastwest;movable=1;resizable=1;deletable=1;editable=1;locked=0;connectable=1;" parent="47bcrhxyphqd8BRHlcOZ-6" vertex="1">
                    <mxGeometry y="26" width="160" height="26" as="geometry"/>
                </mxCell>
                <mxCell id="47bcrhxyphqd8BRHlcOZ-10" value="+ iconSize: Point" style="text;strokeColor=none;fillColor=none;align=left;verticalAlign=top;spacingLeft=4;spacingRight=4;overflow=hidden;rotatable=1;points=[[0,0.5],[1,0.5]];portConstraint=eastwest;movable=1;resizable=1;deletable=1;editable=1;locked=0;connectable=1;" parent="47bcrhxyphqd8BRHlcOZ-6" vertex="1">
                    <mxGeometry y="52" width="160" height="26" as="geometry"/>
                </mxCell>
                <mxCell id="47bcrhxyphqd8BRHlcOZ-11" value="+ iconAnchor: Point" style="text;strokeColor=none;fillColor=none;align=left;verticalAlign=top;spacingLeft=4;spacingRight=4;overflow=hidden;rotatable=1;points=[[0,0.5],[1,0.5]];portConstraint=eastwest;movable=1;resizable=1;deletable=1;editable=1;locked=0;connectable=1;" parent="47bcrhxyphqd8BRHlcOZ-6" vertex="1">
                    <mxGeometry y="78" width="160" height="26" as="geometry"/>
                </mxCell>
                <mxCell id="47bcrhxyphqd8BRHlcOZ-20" value="+ ..." style="text;strokeColor=none;fillColor=none;align=left;verticalAlign=top;spacingLeft=4;spacingRight=4;overflow=hidden;rotatable=1;points=[[0,0.5],[1,0.5]];portConstraint=eastwest;movable=1;resizable=1;deletable=1;editable=1;locked=0;connectable=1;" parent="47bcrhxyphqd8BRHlcOZ-6" vertex="1">
                    <mxGeometry y="104" width="160" height="26" as="geometry"/>
                </mxCell>
                <mxCell id="47bcrhxyphqd8BRHlcOZ-8" value="" style="line;strokeWidth=1;fillColor=none;align=left;verticalAlign=middle;spacingTop=-1;spacingLeft=3;spacingRight=3;rotatable=1;labelPosition=right;points=[];portConstraint=eastwest;strokeColor=inherit;movable=1;resizable=1;deletable=1;editable=1;locked=0;connectable=1;" parent="47bcrhxyphqd8BRHlcOZ-6" vertex="1">
                    <mxGeometry y="130" width="160" height="8" as="geometry"/>
                </mxCell>
                <mxCell id="47bcrhxyphqd8BRHlcOZ-9" value="+ ..." style="text;strokeColor=none;fillColor=none;align=left;verticalAlign=top;spacingLeft=4;spacingRight=4;overflow=hidden;rotatable=1;points=[[0,0.5],[1,0.5]];portConstraint=eastwest;movable=1;resizable=1;deletable=1;editable=1;locked=0;connectable=1;" parent="47bcrhxyphqd8BRHlcOZ-6" vertex="1">
                    <mxGeometry y="138" width="160" height="26" as="geometry"/>
                </mxCell>
                <mxCell id="47bcrhxyphqd8BRHlcOZ-12" value="L.point" style="swimlane;fontStyle=1;align=center;verticalAlign=top;childLayout=stackLayout;horizontal=1;startSize=26;horizontalStack=0;resizeParent=1;resizeParentMax=0;resizeLast=0;collapsible=1;marginBottom=0;movable=1;resizable=1;rotatable=1;deletable=1;editable=1;locked=0;connectable=1;" parent="1" vertex="1">
                    <mxGeometry x="64.5" y="-191" width="179" height="138" as="geometry"/>
                </mxCell>
                <mxCell id="47bcrhxyphqd8BRHlcOZ-13" value="+ x: Number" style="text;strokeColor=none;fillColor=none;align=left;verticalAlign=top;spacingLeft=4;spacingRight=4;overflow=hidden;rotatable=1;points=[[0,0.5],[1,0.5]];portConstraint=eastwest;movable=1;resizable=1;deletable=1;editable=1;locked=0;connectable=1;" parent="47bcrhxyphqd8BRHlcOZ-12" vertex="1">
                    <mxGeometry y="26" width="179" height="26" as="geometry"/>
                </mxCell>
                <mxCell id="47bcrhxyphqd8BRHlcOZ-16" value="+ y: Number" style="text;strokeColor=none;fillColor=none;align=left;verticalAlign=top;spacingLeft=4;spacingRight=4;overflow=hidden;rotatable=1;points=[[0,0.5],[1,0.5]];portConstraint=eastwest;movable=1;resizable=1;deletable=1;editable=1;locked=0;connectable=1;" parent="47bcrhxyphqd8BRHlcOZ-12" vertex="1">
                    <mxGeometry y="52" width="179" height="26" as="geometry"/>
                </mxCell>
                <mxCell id="47bcrhxyphqd8BRHlcOZ-14" value="" style="line;strokeWidth=1;fillColor=none;align=left;verticalAlign=middle;spacingTop=-1;spacingLeft=3;spacingRight=3;rotatable=1;labelPosition=right;points=[];portConstraint=eastwest;strokeColor=inherit;movable=1;resizable=1;deletable=1;editable=1;locked=0;connectable=1;" parent="47bcrhxyphqd8BRHlcOZ-12" vertex="1">
                    <mxGeometry y="78" width="179" height="8" as="geometry"/>
                </mxCell>
                <mxCell id="47bcrhxyphqd8BRHlcOZ-30" value="+ distanceTo(LatLng): Number" style="text;strokeColor=none;fillColor=none;align=left;verticalAlign=top;spacingLeft=4;spacingRight=4;overflow=hidden;rotatable=1;points=[[0,0.5],[1,0.5]];portConstraint=eastwest;movable=1;resizable=1;deletable=1;editable=1;locked=0;connectable=1;" parent="47bcrhxyphqd8BRHlcOZ-12" vertex="1">
                    <mxGeometry y="86" width="179" height="26" as="geometry"/>
                </mxCell>
                <mxCell id="47bcrhxyphqd8BRHlcOZ-15" value="+ ..." style="text;strokeColor=none;fillColor=none;align=left;verticalAlign=top;spacingLeft=4;spacingRight=4;overflow=hidden;rotatable=1;points=[[0,0.5],[1,0.5]];portConstraint=eastwest;movable=1;resizable=1;deletable=1;editable=1;locked=0;connectable=1;" parent="47bcrhxyphqd8BRHlcOZ-12" vertex="1">
                    <mxGeometry y="112" width="179" height="26" as="geometry"/>
                </mxCell>
                <mxCell id="47bcrhxyphqd8BRHlcOZ-24" value="Extends" style="endArrow=block;endSize=16;endFill=0;html=1;exitX=1;exitY=0.5;exitDx=0;exitDy=0;movable=1;resizable=1;rotatable=1;deletable=1;editable=1;locked=0;connectable=1;entryX=-0.011;entryY=0.026;entryDx=0;entryDy=0;entryPerimeter=0;" parent="1" source="2" target="36" edge="1">
                    <mxGeometry width="160" relative="1" as="geometry">
                        <mxPoint x="-137" y="203" as="sourcePoint"/>
                        <mxPoint x="23" y="203" as="targetPoint"/>
                    </mxGeometry>
                </mxCell>
                <mxCell id="47bcrhxyphqd8BRHlcOZ-27" value="L.latLng" style="swimlane;fontStyle=1;align=center;verticalAlign=top;childLayout=stackLayout;horizontal=1;startSize=26;horizontalStack=0;resizeParent=1;resizeParentMax=0;resizeLast=0;collapsible=1;marginBottom=0;movable=1;resizable=1;rotatable=1;deletable=1;editable=1;locked=0;connectable=1;" parent="1" vertex="1">
                    <mxGeometry x="-19" y="13" width="185" height="138" as="geometry"/>
                </mxCell>
                <mxCell id="47bcrhxyphqd8BRHlcOZ-28" value="+ lat: Number" style="text;strokeColor=none;fillColor=none;align=left;verticalAlign=top;spacingLeft=4;spacingRight=4;overflow=hidden;rotatable=1;points=[[0,0.5],[1,0.5]];portConstraint=eastwest;movable=1;resizable=1;deletable=1;editable=1;locked=0;connectable=1;" parent="47bcrhxyphqd8BRHlcOZ-27" vertex="1">
                    <mxGeometry y="26" width="185" height="26" as="geometry"/>
                </mxCell>
                <mxCell id="47bcrhxyphqd8BRHlcOZ-32" value="+ lng: Number" style="text;strokeColor=none;fillColor=none;align=left;verticalAlign=top;spacingLeft=4;spacingRight=4;overflow=hidden;rotatable=1;points=[[0,0.5],[1,0.5]];portConstraint=eastwest;movable=1;resizable=1;deletable=1;editable=1;locked=0;connectable=1;" parent="47bcrhxyphqd8BRHlcOZ-27" vertex="1">
                    <mxGeometry y="52" width="185" height="26" as="geometry"/>
                </mxCell>
                <mxCell id="47bcrhxyphqd8BRHlcOZ-33" value="+ ..." style="text;strokeColor=none;fillColor=none;align=left;verticalAlign=top;spacingLeft=4;spacingRight=4;overflow=hidden;rotatable=1;points=[[0,0.5],[1,0.5]];portConstraint=eastwest;movable=1;resizable=1;deletable=1;editable=1;locked=0;connectable=1;" parent="47bcrhxyphqd8BRHlcOZ-27" vertex="1">
                    <mxGeometry y="78" width="185" height="26" as="geometry"/>
                </mxCell>
                <mxCell id="47bcrhxyphqd8BRHlcOZ-29" value="" style="line;strokeWidth=1;fillColor=none;align=left;verticalAlign=middle;spacingTop=-1;spacingLeft=3;spacingRight=3;rotatable=1;labelPosition=right;points=[];portConstraint=eastwest;strokeColor=inherit;movable=1;resizable=1;deletable=1;editable=1;locked=0;connectable=1;" parent="47bcrhxyphqd8BRHlcOZ-27" vertex="1">
                    <mxGeometry y="104" width="185" height="8" as="geometry"/>
                </mxCell>
                <mxCell id="47bcrhxyphqd8BRHlcOZ-31" value="+ ..." style="text;strokeColor=none;fillColor=none;align=left;verticalAlign=top;spacingLeft=4;spacingRight=4;overflow=hidden;rotatable=1;points=[[0,0.5],[1,0.5]];portConstraint=eastwest;movable=1;resizable=1;deletable=1;editable=1;locked=0;connectable=1;" parent="47bcrhxyphqd8BRHlcOZ-27" vertex="1">
                    <mxGeometry y="112" width="185" height="26" as="geometry"/>
                </mxCell>
                <mxCell id="47bcrhxyphqd8BRHlcOZ-36" value="L.map" style="swimlane;fontStyle=1;align=center;verticalAlign=top;childLayout=stackLayout;horizontal=1;startSize=26;horizontalStack=0;resizeParent=1;resizeParentMax=0;resizeLast=0;collapsible=1;marginBottom=0;movable=1;resizable=1;rotatable=1;deletable=1;editable=1;locked=0;connectable=1;" parent="1" vertex="1">
                    <mxGeometry x="53" y="-857" width="240" height="398" as="geometry"/>
                </mxCell>
                <mxCell id="47bcrhxyphqd8BRHlcOZ-46" value="+ id: String" style="text;strokeColor=none;fillColor=none;align=left;verticalAlign=top;spacingLeft=4;spacingRight=4;overflow=hidden;rotatable=1;points=[[0,0.5],[1,0.5]];portConstraint=eastwest;movable=1;resizable=1;deletable=1;editable=1;locked=0;connectable=1;" parent="47bcrhxyphqd8BRHlcOZ-36" vertex="1">
                    <mxGeometry y="26" width="240" height="26" as="geometry"/>
                </mxCell>
                <mxCell id="47bcrhxyphqd8BRHlcOZ-37" value="+ zoomControl: boolean" style="text;strokeColor=none;fillColor=none;align=left;verticalAlign=top;spacingLeft=4;spacingRight=4;overflow=hidden;rotatable=1;points=[[0,0.5],[1,0.5]];portConstraint=eastwest;movable=1;resizable=1;deletable=1;editable=1;locked=0;connectable=1;" parent="47bcrhxyphqd8BRHlcOZ-36" vertex="1">
                    <mxGeometry y="52" width="240" height="26" as="geometry"/>
                </mxCell>
                <mxCell id="47bcrhxyphqd8BRHlcOZ-40" value="+ crs: CRS" style="text;strokeColor=none;fillColor=none;align=left;verticalAlign=top;spacingLeft=4;spacingRight=4;overflow=hidden;rotatable=1;points=[[0,0.5],[1,0.5]];portConstraint=eastwest;movable=1;resizable=1;deletable=1;editable=1;locked=0;connectable=1;" parent="47bcrhxyphqd8BRHlcOZ-36" vertex="1">
                    <mxGeometry y="78" width="240" height="26" as="geometry"/>
                </mxCell>
                <mxCell id="47bcrhxyphqd8BRHlcOZ-41" value="+ minZoom: Number" style="text;strokeColor=none;fillColor=none;align=left;verticalAlign=top;spacingLeft=4;spacingRight=4;overflow=hidden;rotatable=1;points=[[0,0.5],[1,0.5]];portConstraint=eastwest;movable=1;resizable=1;deletable=1;editable=1;locked=0;connectable=1;" parent="47bcrhxyphqd8BRHlcOZ-36" vertex="1">
                    <mxGeometry y="104" width="240" height="26" as="geometry"/>
                </mxCell>
                <mxCell id="138" value="+ maxZoom: Number" style="text;strokeColor=none;fillColor=none;align=left;verticalAlign=top;spacingLeft=4;spacingRight=4;overflow=hidden;rotatable=1;points=[[0,0.5],[1,0.5]];portConstraint=eastwest;movable=1;resizable=1;deletable=1;editable=1;locked=0;connectable=1;" parent="47bcrhxyphqd8BRHlcOZ-36" vertex="1">
                    <mxGeometry y="130" width="240" height="26" as="geometry"/>
                </mxCell>
                <mxCell id="22" value="+ rotate: Boolean" style="text;strokeColor=none;fillColor=none;align=left;verticalAlign=top;spacingLeft=4;spacingRight=4;overflow=hidden;rotatable=1;points=[[0,0.5],[1,0.5]];portConstraint=eastwest;movable=1;resizable=1;deletable=1;editable=1;locked=0;connectable=1;" parent="47bcrhxyphqd8BRHlcOZ-36" vertex="1">
                    <mxGeometry y="156" width="240" height="26" as="geometry"/>
                </mxCell>
                <mxCell id="23" value="+ bearing: Number" style="text;strokeColor=none;fillColor=none;align=left;verticalAlign=top;spacingLeft=4;spacingRight=4;overflow=hidden;rotatable=1;points=[[0,0.5],[1,0.5]];portConstraint=eastwest;movable=1;resizable=1;deletable=1;editable=1;locked=0;connectable=1;" parent="47bcrhxyphqd8BRHlcOZ-36" vertex="1">
                    <mxGeometry y="182" width="240" height="26" as="geometry"/>
                </mxCell>
                <mxCell id="24" value="+ touchRotate: Boolean" style="text;strokeColor=none;fillColor=none;align=left;verticalAlign=top;spacingLeft=4;spacingRight=4;overflow=hidden;rotatable=1;points=[[0,0.5],[1,0.5]];portConstraint=eastwest;movable=1;resizable=1;deletable=1;editable=1;locked=0;connectable=1;" parent="47bcrhxyphqd8BRHlcOZ-36" vertex="1">
                    <mxGeometry y="208" width="240" height="26" as="geometry"/>
                </mxCell>
                <mxCell id="47bcrhxyphqd8BRHlcOZ-47" value="+ ..." style="text;strokeColor=none;fillColor=none;align=left;verticalAlign=top;spacingLeft=4;spacingRight=4;overflow=hidden;rotatable=1;points=[[0,0.5],[1,0.5]];portConstraint=eastwest;movable=1;resizable=1;deletable=1;editable=1;locked=0;connectable=1;" parent="47bcrhxyphqd8BRHlcOZ-36" vertex="1">
                    <mxGeometry y="234" width="240" height="26" as="geometry"/>
                </mxCell>
                <mxCell id="47bcrhxyphqd8BRHlcOZ-38" value="" style="line;strokeWidth=1;fillColor=none;align=left;verticalAlign=middle;spacingTop=-1;spacingLeft=3;spacingRight=3;rotatable=1;labelPosition=right;points=[];portConstraint=eastwest;strokeColor=inherit;movable=1;resizable=1;deletable=1;editable=1;locked=0;connectable=1;" parent="47bcrhxyphqd8BRHlcOZ-36" vertex="1">
                    <mxGeometry y="260" width="240" height="8" as="geometry"/>
                </mxCell>
                <mxCell id="47bcrhxyphqd8BRHlcOZ-39" value="+ setView(center: LatLng, zoom: Number)" style="text;strokeColor=none;fillColor=none;align=left;verticalAlign=top;spacingLeft=4;spacingRight=4;overflow=hidden;rotatable=1;points=[[0,0.5],[1,0.5]];portConstraint=eastwest;movable=1;resizable=1;deletable=1;editable=1;locked=0;connectable=1;" parent="47bcrhxyphqd8BRHlcOZ-36" vertex="1">
                    <mxGeometry y="268" width="240" height="26" as="geometry"/>
                </mxCell>
                <mxCell id="33" value="+ eachLayer(fn: Function)" style="text;strokeColor=none;fillColor=none;align=left;verticalAlign=top;spacingLeft=4;spacingRight=4;overflow=hidden;rotatable=1;points=[[0,0.5],[1,0.5]];portConstraint=eastwest;movable=1;resizable=1;deletable=1;editable=1;locked=0;connectable=1;" parent="47bcrhxyphqd8BRHlcOZ-36" vertex="1">
                    <mxGeometry y="294" width="240" height="26" as="geometry"/>
                </mxCell>
                <mxCell id="34" value="+ flyTo(latlng: LatLng, zoom: Number)" style="text;strokeColor=none;fillColor=none;align=left;verticalAlign=top;spacingLeft=4;spacingRight=4;overflow=hidden;rotatable=1;points=[[0,0.5],[1,0.5]];portConstraint=eastwest;movable=1;resizable=1;deletable=1;editable=1;locked=0;connectable=1;" parent="47bcrhxyphqd8BRHlcOZ-36" vertex="1">
                    <mxGeometry y="320" width="240" height="26" as="geometry"/>
                </mxCell>
                <mxCell id="35" value="+ setBearing(Number)" style="text;strokeColor=none;fillColor=none;align=left;verticalAlign=top;spacingLeft=4;spacingRight=4;overflow=hidden;rotatable=1;points=[[0,0.5],[1,0.5]];portConstraint=eastwest;movable=1;resizable=1;deletable=1;editable=1;locked=0;connectable=1;" parent="47bcrhxyphqd8BRHlcOZ-36" vertex="1">
                    <mxGeometry y="346" width="240" height="26" as="geometry"/>
                </mxCell>
                <mxCell id="47bcrhxyphqd8BRHlcOZ-48" value="+ ..." style="text;strokeColor=none;fillColor=none;align=left;verticalAlign=top;spacingLeft=4;spacingRight=4;overflow=hidden;rotatable=1;points=[[0,0.5],[1,0.5]];portConstraint=eastwest;movable=1;resizable=1;deletable=1;editable=1;locked=0;connectable=1;" parent="47bcrhxyphqd8BRHlcOZ-36" vertex="1">
                    <mxGeometry y="372" width="240" height="26" as="geometry"/>
                </mxCell>
                <mxCell id="47bcrhxyphqd8BRHlcOZ-42" value="L.imageOverlay" style="swimlane;fontStyle=1;align=center;verticalAlign=top;childLayout=stackLayout;horizontal=1;startSize=26;horizontalStack=0;resizeParent=1;resizeParentMax=0;resizeLast=0;collapsible=1;marginBottom=0;movable=1;resizable=1;rotatable=1;deletable=1;editable=1;locked=0;connectable=1;" parent="1" vertex="1">
                    <mxGeometry x="323" y="-398" width="160" height="164" as="geometry"/>
                </mxCell>
                <mxCell id="47bcrhxyphqd8BRHlcOZ-43" value="+ imageUrl: String" style="text;strokeColor=none;fillColor=none;align=left;verticalAlign=top;spacingLeft=4;spacingRight=4;overflow=hidden;rotatable=1;points=[[0,0.5],[1,0.5]];portConstraint=eastwest;movable=1;resizable=1;deletable=1;editable=1;locked=0;connectable=1;" parent="47bcrhxyphqd8BRHlcOZ-42" vertex="1">
                    <mxGeometry y="26" width="160" height="26" as="geometry"/>
                </mxCell>
                <mxCell id="47bcrhxyphqd8BRHlcOZ-49" value="+ bounds: LatLngBounds" style="text;strokeColor=none;fillColor=none;align=left;verticalAlign=top;spacingLeft=4;spacingRight=4;overflow=hidden;rotatable=1;points=[[0,0.5],[1,0.5]];portConstraint=eastwest;movable=1;resizable=1;deletable=1;editable=1;locked=0;connectable=1;" parent="47bcrhxyphqd8BRHlcOZ-42" vertex="1">
                    <mxGeometry y="52" width="160" height="26" as="geometry"/>
                </mxCell>
                <mxCell id="115" value="+ ..." style="text;strokeColor=none;fillColor=none;align=left;verticalAlign=top;spacingLeft=4;spacingRight=4;overflow=hidden;rotatable=1;points=[[0,0.5],[1,0.5]];portConstraint=eastwest;movable=1;resizable=1;deletable=1;editable=1;locked=0;connectable=1;" parent="47bcrhxyphqd8BRHlcOZ-42" vertex="1">
                    <mxGeometry y="78" width="160" height="26" as="geometry"/>
                </mxCell>
                <mxCell id="47bcrhxyphqd8BRHlcOZ-44" value="" style="line;strokeWidth=1;fillColor=none;align=left;verticalAlign=middle;spacingTop=-1;spacingLeft=3;spacingRight=3;rotatable=1;labelPosition=right;points=[];portConstraint=eastwest;strokeColor=inherit;movable=1;resizable=1;deletable=1;editable=1;locked=0;connectable=1;" parent="47bcrhxyphqd8BRHlcOZ-42" vertex="1">
                    <mxGeometry y="104" width="160" height="8" as="geometry"/>
                </mxCell>
                <mxCell id="47bcrhxyphqd8BRHlcOZ-45" value="+ addTo(Map)" style="text;strokeColor=none;fillColor=none;align=left;verticalAlign=top;spacingLeft=4;spacingRight=4;overflow=hidden;rotatable=1;points=[[0,0.5],[1,0.5]];portConstraint=eastwest;movable=1;resizable=1;deletable=1;editable=1;locked=0;connectable=1;" parent="47bcrhxyphqd8BRHlcOZ-42" vertex="1">
                    <mxGeometry y="112" width="160" height="26" as="geometry"/>
                </mxCell>
                <mxCell id="116" value="+ ..." style="text;strokeColor=none;fillColor=none;align=left;verticalAlign=top;spacingLeft=4;spacingRight=4;overflow=hidden;rotatable=1;points=[[0,0.5],[1,0.5]];portConstraint=eastwest;movable=1;resizable=1;deletable=1;editable=1;locked=0;connectable=1;" parent="47bcrhxyphqd8BRHlcOZ-42" vertex="1">
                    <mxGeometry y="138" width="160" height="26" as="geometry"/>
                </mxCell>
                <mxCell id="47bcrhxyphqd8BRHlcOZ-50" value="L.latLngBounds" style="swimlane;fontStyle=1;align=center;verticalAlign=top;childLayout=stackLayout;horizontal=1;startSize=26;horizontalStack=0;resizeParent=1;resizeParentMax=0;resizeLast=0;collapsible=1;marginBottom=0;movable=1;resizable=1;rotatable=1;deletable=1;editable=1;locked=0;connectable=1;" parent="1" vertex="1">
                    <mxGeometry x="323" y="13" width="160" height="138" as="geometry"/>
                </mxCell>
                <mxCell id="47bcrhxyphqd8BRHlcOZ-51" value="+ corner1: LatLng" style="text;strokeColor=none;fillColor=none;align=left;verticalAlign=top;spacingLeft=4;spacingRight=4;overflow=hidden;rotatable=1;points=[[0,0.5],[1,0.5]];portConstraint=eastwest;movable=1;resizable=1;deletable=1;editable=1;locked=0;connectable=1;" parent="47bcrhxyphqd8BRHlcOZ-50" vertex="1">
                    <mxGeometry y="26" width="160" height="26" as="geometry"/>
                </mxCell>
                <mxCell id="47bcrhxyphqd8BRHlcOZ-54" value="+ corner2: LatLng" style="text;strokeColor=none;fillColor=none;align=left;verticalAlign=top;spacingLeft=4;spacingRight=4;overflow=hidden;rotatable=1;points=[[0,0.5],[1,0.5]];portConstraint=eastwest;movable=1;resizable=1;deletable=1;editable=1;locked=0;connectable=1;" parent="47bcrhxyphqd8BRHlcOZ-50" vertex="1">
                    <mxGeometry y="52" width="160" height="26" as="geometry"/>
                </mxCell>
                <mxCell id="117" value="+ ..." style="text;strokeColor=none;fillColor=none;align=left;verticalAlign=top;spacingLeft=4;spacingRight=4;overflow=hidden;rotatable=1;points=[[0,0.5],[1,0.5]];portConstraint=eastwest;movable=1;resizable=1;deletable=1;editable=1;locked=0;connectable=1;" parent="47bcrhxyphqd8BRHlcOZ-50" vertex="1">
                    <mxGeometry y="78" width="160" height="26" as="geometry"/>
                </mxCell>
                <mxCell id="47bcrhxyphqd8BRHlcOZ-52" value="" style="line;strokeWidth=1;fillColor=none;align=left;verticalAlign=middle;spacingTop=-1;spacingLeft=3;spacingRight=3;rotatable=1;labelPosition=right;points=[];portConstraint=eastwest;strokeColor=inherit;movable=1;resizable=1;deletable=1;editable=1;locked=0;connectable=1;" parent="47bcrhxyphqd8BRHlcOZ-50" vertex="1">
                    <mxGeometry y="104" width="160" height="8" as="geometry"/>
                </mxCell>
                <mxCell id="47bcrhxyphqd8BRHlcOZ-53" value="+ ..." style="text;strokeColor=none;fillColor=none;align=left;verticalAlign=top;spacingLeft=4;spacingRight=4;overflow=hidden;rotatable=1;points=[[0,0.5],[1,0.5]];portConstraint=eastwest;movable=1;resizable=1;deletable=1;editable=1;locked=0;connectable=1;" parent="47bcrhxyphqd8BRHlcOZ-50" vertex="1">
                    <mxGeometry y="112" width="160" height="26" as="geometry"/>
                </mxCell>
                <mxCell id="47bcrhxyphqd8BRHlcOZ-58" value="L.CRS" style="swimlane;fontStyle=1;align=center;verticalAlign=top;childLayout=stackLayout;horizontal=1;startSize=26;horizontalStack=0;resizeParent=1;resizeParentMax=0;resizeLast=0;collapsible=1;marginBottom=0;movable=1;resizable=1;rotatable=1;deletable=1;editable=1;locked=0;connectable=1;" parent="1" vertex="1">
                    <mxGeometry x="-181" y="-804" width="160" height="86" as="geometry"/>
                </mxCell>
                <mxCell id="47bcrhxyphqd8BRHlcOZ-59" value="+ ..." style="text;strokeColor=none;fillColor=none;align=left;verticalAlign=top;spacingLeft=4;spacingRight=4;overflow=hidden;rotatable=1;points=[[0,0.5],[1,0.5]];portConstraint=eastwest;movable=1;resizable=1;deletable=1;editable=1;locked=0;connectable=1;" parent="47bcrhxyphqd8BRHlcOZ-58" vertex="1">
                    <mxGeometry y="26" width="160" height="26" as="geometry"/>
                </mxCell>
                <mxCell id="47bcrhxyphqd8BRHlcOZ-60" value="" style="line;strokeWidth=1;fillColor=none;align=left;verticalAlign=middle;spacingTop=-1;spacingLeft=3;spacingRight=3;rotatable=1;labelPosition=right;points=[];portConstraint=eastwest;strokeColor=inherit;movable=1;resizable=1;deletable=1;editable=1;locked=0;connectable=1;" parent="47bcrhxyphqd8BRHlcOZ-58" vertex="1">
                    <mxGeometry y="52" width="160" height="8" as="geometry"/>
                </mxCell>
                <mxCell id="47bcrhxyphqd8BRHlcOZ-61" value="+ ..." style="text;strokeColor=none;fillColor=none;align=left;verticalAlign=top;spacingLeft=4;spacingRight=4;overflow=hidden;rotatable=1;points=[[0,0.5],[1,0.5]];portConstraint=eastwest;movable=1;resizable=1;deletable=1;editable=1;locked=0;connectable=1;" parent="47bcrhxyphqd8BRHlcOZ-58" vertex="1">
                    <mxGeometry y="60" width="160" height="26" as="geometry"/>
                </mxCell>
                <mxCell id="4031oEJd7GCodYw7584o-3" value="L.polyline" style="swimlane;fontStyle=1;align=center;verticalAlign=top;childLayout=stackLayout;horizontal=1;startSize=26;horizontalStack=0;resizeParent=1;resizeParentMax=0;resizeLast=0;collapsible=1;marginBottom=0;movable=1;resizable=1;rotatable=1;deletable=1;editable=1;locked=0;connectable=1;" parent="1" vertex="1">
                    <mxGeometry x="-181" y="166" width="160" height="164" as="geometry"/>
                </mxCell>
                <mxCell id="4031oEJd7GCodYw7584o-4" value="+ latlngs: LatLng[]" style="text;strokeColor=none;fillColor=none;align=left;verticalAlign=top;spacingLeft=4;spacingRight=4;overflow=hidden;rotatable=1;points=[[0,0.5],[1,0.5]];portConstraint=eastwest;movable=1;resizable=1;deletable=1;editable=1;locked=0;connectable=1;" parent="4031oEJd7GCodYw7584o-3" vertex="1">
                    <mxGeometry y="26" width="160" height="26" as="geometry"/>
                </mxCell>
                <mxCell id="4031oEJd7GCodYw7584o-13" value="+ ..." style="text;strokeColor=none;fillColor=none;align=left;verticalAlign=top;spacingLeft=4;spacingRight=4;overflow=hidden;rotatable=1;points=[[0,0.5],[1,0.5]];portConstraint=eastwest;movable=1;resizable=1;deletable=1;editable=1;locked=0;connectable=1;" parent="4031oEJd7GCodYw7584o-3" vertex="1">
                    <mxGeometry y="52" width="160" height="26" as="geometry"/>
                </mxCell>
                <mxCell id="4031oEJd7GCodYw7584o-5" value="" style="line;strokeWidth=1;fillColor=none;align=left;verticalAlign=middle;spacingTop=-1;spacingLeft=3;spacingRight=3;rotatable=1;labelPosition=right;points=[];portConstraint=eastwest;strokeColor=inherit;movable=1;resizable=1;deletable=1;editable=1;locked=0;connectable=1;" parent="4031oEJd7GCodYw7584o-3" vertex="1">
                    <mxGeometry y="78" width="160" height="8" as="geometry"/>
                </mxCell>
                <mxCell id="91" value="&lt;&lt;Create&gt;&gt; polyline(latlng[])" style="text;strokeColor=none;fillColor=none;align=left;verticalAlign=top;spacingLeft=4;spacingRight=4;overflow=hidden;rotatable=1;points=[[0,0.5],[1,0.5]];portConstraint=eastwest;movable=1;resizable=1;deletable=1;editable=1;locked=0;connectable=1;" parent="4031oEJd7GCodYw7584o-3" vertex="1">
                    <mxGeometry y="86" width="160" height="26" as="geometry"/>
                </mxCell>
                <mxCell id="4031oEJd7GCodYw7584o-6" value="+ addTo(Map)" style="text;strokeColor=none;fillColor=none;align=left;verticalAlign=top;spacingLeft=4;spacingRight=4;overflow=hidden;rotatable=1;points=[[0,0.5],[1,0.5]];portConstraint=eastwest;movable=1;resizable=1;deletable=1;editable=1;locked=0;connectable=1;" parent="4031oEJd7GCodYw7584o-3" vertex="1">
                    <mxGeometry y="112" width="160" height="26" as="geometry"/>
                </mxCell>
                <mxCell id="4031oEJd7GCodYw7584o-14" value="+ ..." style="text;strokeColor=none;fillColor=none;align=left;verticalAlign=top;spacingLeft=4;spacingRight=4;overflow=hidden;rotatable=1;points=[[0,0.5],[1,0.5]];portConstraint=eastwest;movable=1;resizable=1;deletable=1;editable=1;locked=0;connectable=1;" parent="4031oEJd7GCodYw7584o-3" vertex="1">
                    <mxGeometry y="138" width="160" height="26" as="geometry"/>
                </mxCell>
                <mxCell id="4031oEJd7GCodYw7584o-7" value="Edge // Kante" style="swimlane;fontStyle=1;align=center;verticalAlign=top;childLayout=stackLayout;horizontal=1;startSize=26;horizontalStack=0;resizeParent=1;resizeParentMax=0;resizeLast=0;collapsible=1;marginBottom=0;movable=1;resizable=1;rotatable=1;deletable=1;editable=1;locked=0;connectable=1;" parent="1" vertex="1">
                    <mxGeometry x="-533" y="160" width="186" height="86" as="geometry"/>
                </mxCell>
                <mxCell id="4031oEJd7GCodYw7584o-8" value="+ nodeA: Node" style="text;strokeColor=none;fillColor=none;align=left;verticalAlign=top;spacingLeft=4;spacingRight=4;overflow=hidden;rotatable=1;points=[[0,0.5],[1,0.5]];portConstraint=eastwest;movable=1;resizable=1;deletable=1;editable=1;locked=0;connectable=1;" parent="4031oEJd7GCodYw7584o-7" vertex="1">
                    <mxGeometry y="26" width="186" height="26" as="geometry"/>
                </mxCell>
                <mxCell id="4031oEJd7GCodYw7584o-12" value="+ nodeB: Node" style="text;strokeColor=none;fillColor=none;align=left;verticalAlign=top;spacingLeft=4;spacingRight=4;overflow=hidden;rotatable=1;points=[[0,0.5],[1,0.5]];portConstraint=eastwest;movable=1;resizable=1;deletable=1;editable=1;locked=0;connectable=1;" parent="4031oEJd7GCodYw7584o-7" vertex="1">
                    <mxGeometry y="52" width="186" height="26" as="geometry"/>
                </mxCell>
                <mxCell id="4031oEJd7GCodYw7584o-9" value="" style="line;strokeWidth=1;fillColor=none;align=left;verticalAlign=middle;spacingTop=-1;spacingLeft=3;spacingRight=3;rotatable=1;labelPosition=right;points=[];portConstraint=eastwest;strokeColor=inherit;movable=1;resizable=1;deletable=1;editable=1;locked=0;connectable=1;" parent="4031oEJd7GCodYw7584o-7" vertex="1">
                    <mxGeometry y="78" width="186" height="8" as="geometry"/>
                </mxCell>
                <mxCell id="4031oEJd7GCodYw7584o-11" value="Extends" style="endArrow=block;endSize=16;endFill=0;html=1;movable=1;resizable=1;rotatable=1;deletable=1;editable=1;locked=0;connectable=1;entryX=0;entryY=0.5;entryDx=0;entryDy=0;" parent="1" source="4031oEJd7GCodYw7584o-7" target="4031oEJd7GCodYw7584o-4" edge="1">
                    <mxGeometry width="160" relative="1" as="geometry">
                        <mxPoint x="-224" y="166" as="sourcePoint"/>
                        <mxPoint x="-64" y="166" as="targetPoint"/>
                    </mxGeometry>
                </mxCell>
                <mxCell id="eqyPjIkJq11NoU5mD4Jg-10" value="L.Control" style="swimlane;fontStyle=1;align=center;verticalAlign=top;childLayout=stackLayout;horizontal=1;startSize=26;horizontalStack=0;resizeParent=1;resizeParentMax=0;resizeLast=0;collapsible=1;marginBottom=0;movable=1;resizable=1;rotatable=1;deletable=1;editable=1;locked=0;connectable=1;" parent="1" vertex="1">
                    <mxGeometry x="-181" y="-597" width="160" height="138" as="geometry"/>
                </mxCell>
                <mxCell id="eqyPjIkJq11NoU5mD4Jg-11" value="+ position: String" style="text;strokeColor=none;fillColor=none;align=left;verticalAlign=top;spacingLeft=4;spacingRight=4;overflow=hidden;rotatable=1;points=[[0,0.5],[1,0.5]];portConstraint=eastwest;movable=1;resizable=1;deletable=1;editable=1;locked=0;connectable=1;" parent="eqyPjIkJq11NoU5mD4Jg-10" vertex="1">
                    <mxGeometry y="26" width="160" height="26" as="geometry"/>
                </mxCell>
                <mxCell id="eqyPjIkJq11NoU5mD4Jg-12" value="" style="line;strokeWidth=1;fillColor=none;align=left;verticalAlign=middle;spacingTop=-1;spacingLeft=3;spacingRight=3;rotatable=1;labelPosition=right;points=[];portConstraint=eastwest;strokeColor=inherit;movable=1;resizable=1;deletable=1;editable=1;locked=0;connectable=1;" parent="eqyPjIkJq11NoU5mD4Jg-10" vertex="1">
                    <mxGeometry y="52" width="160" height="8" as="geometry"/>
                </mxCell>
                <mxCell id="eqyPjIkJq11NoU5mD4Jg-13" value="+ addTo(Map)" style="text;strokeColor=none;fillColor=none;align=left;verticalAlign=top;spacingLeft=4;spacingRight=4;overflow=hidden;rotatable=1;points=[[0,0.5],[1,0.5]];portConstraint=eastwest;movable=1;resizable=1;deletable=1;editable=1;locked=0;connectable=1;" parent="eqyPjIkJq11NoU5mD4Jg-10" vertex="1">
                    <mxGeometry y="60" width="160" height="26" as="geometry"/>
                </mxCell>
                <mxCell id="eqyPjIkJq11NoU5mD4Jg-14" value="+ onAdd(Map)" style="text;strokeColor=none;fillColor=none;align=left;verticalAlign=top;spacingLeft=4;spacingRight=4;overflow=hidden;rotatable=1;points=[[0,0.5],[1,0.5]];portConstraint=eastwest;movable=1;resizable=1;deletable=1;editable=1;locked=0;connectable=1;" parent="eqyPjIkJq11NoU5mD4Jg-10" vertex="1">
                    <mxGeometry y="86" width="160" height="26" as="geometry"/>
                </mxCell>
                <mxCell id="eqyPjIkJq11NoU5mD4Jg-15" value="+ ..." style="text;strokeColor=none;fillColor=none;align=left;verticalAlign=top;spacingLeft=4;spacingRight=4;overflow=hidden;rotatable=1;points=[[0,0.5],[1,0.5]];portConstraint=eastwest;movable=1;resizable=1;deletable=1;editable=1;locked=0;connectable=1;" parent="eqyPjIkJq11NoU5mD4Jg-10" vertex="1">
                    <mxGeometry y="112" width="160" height="26" as="geometry"/>
                </mxCell>
                <mxCell id="5" value="Product" style="swimlane;fontStyle=1;align=center;verticalAlign=top;childLayout=stackLayout;horizontal=1;startSize=26;horizontalStack=0;resizeParent=1;resizeParentMax=0;resizeLast=0;collapsible=1;marginBottom=0;movable=1;resizable=1;rotatable=1;deletable=1;editable=1;locked=0;connectable=1;" parent="1" vertex="1">
                    <mxGeometry x="-734" y="-356" width="383" height="216" as="geometry"/>
                </mxCell>
                <mxCell id="10" value="+ nan: Number" style="text;strokeColor=none;fillColor=none;align=left;verticalAlign=top;spacingLeft=4;spacingRight=4;overflow=hidden;rotatable=1;points=[[0,0.5],[1,0.5]];portConstraint=eastwest;movable=1;resizable=1;deletable=1;editable=1;locked=0;connectable=1;" parent="5" vertex="1">
                    <mxGeometry y="26" width="383" height="26" as="geometry"/>
                </mxCell>
                <mxCell id="6" value="+ name: String" style="text;strokeColor=none;fillColor=none;align=left;verticalAlign=top;spacingLeft=4;spacingRight=4;overflow=hidden;rotatable=1;points=[[0,0.5],[1,0.5]];portConstraint=eastwest;movable=1;resizable=1;deletable=1;editable=1;locked=0;connectable=1;" parent="5" vertex="1">
                    <mxGeometry y="52" width="383" height="26" as="geometry"/>
                </mxCell>
                <mxCell id="9" value="+ nodeIndex: Number" style="text;strokeColor=none;fillColor=none;align=left;verticalAlign=top;spacingLeft=4;spacingRight=4;overflow=hidden;rotatable=1;points=[[0,0.5],[1,0.5]];portConstraint=eastwest;movable=1;resizable=1;deletable=1;editable=1;locked=0;connectable=1;" parent="5" vertex="1">
                    <mxGeometry y="78" width="383" height="26" as="geometry"/>
                </mxCell>
                <mxCell id="12" value="+ marker: Marker" style="text;strokeColor=none;fillColor=none;align=left;verticalAlign=top;spacingLeft=4;spacingRight=4;overflow=hidden;rotatable=1;points=[[0,0.5],[1,0.5]];portConstraint=eastwest;movable=1;resizable=1;deletable=1;editable=1;locked=0;connectable=1;" parent="5" vertex="1">
                    <mxGeometry y="104" width="383" height="26" as="geometry"/>
                </mxCell>
                <mxCell id="7" value="" style="line;strokeWidth=1;fillColor=none;align=left;verticalAlign=middle;spacingTop=-1;spacingLeft=3;spacingRight=3;rotatable=1;labelPosition=right;points=[];portConstraint=eastwest;strokeColor=inherit;movable=1;resizable=1;deletable=1;editable=1;locked=0;connectable=1;" parent="5" vertex="1">
                    <mxGeometry y="130" width="383" height="8" as="geometry"/>
                </mxCell>
                <mxCell id="82" value="&lt;&lt;Create&gt;&gt; Product(nan: Number, name: String, nodeIndex: Number)" style="text;strokeColor=none;fillColor=none;align=left;verticalAlign=top;spacingLeft=4;spacingRight=4;overflow=hidden;rotatable=1;points=[[0,0.5],[1,0.5]];portConstraint=eastwest;movable=1;resizable=1;deletable=1;editable=1;locked=0;connectable=1;" parent="5" vertex="1">
                    <mxGeometry y="138" width="383" height="26" as="geometry"/>
                </mxCell>
                <mxCell id="11" value="+ showMarker()" style="text;strokeColor=none;fillColor=none;align=left;verticalAlign=top;spacingLeft=4;spacingRight=4;overflow=hidden;rotatable=1;points=[[0,0.5],[1,0.5]];portConstraint=eastwest;movable=1;resizable=1;deletable=1;editable=1;locked=0;connectable=1;" parent="5" vertex="1">
                    <mxGeometry y="164" width="383" height="26" as="geometry"/>
                </mxCell>
                <mxCell id="13" value="+ hideMarker()" style="text;strokeColor=none;fillColor=none;align=left;verticalAlign=top;spacingLeft=4;spacingRight=4;overflow=hidden;rotatable=1;points=[[0,0.5],[1,0.5]];portConstraint=eastwest;movable=1;resizable=1;deletable=1;editable=1;locked=0;connectable=1;" parent="5" vertex="1">
                    <mxGeometry y="190" width="383" height="26" as="geometry"/>
                </mxCell>
                <mxCell id="15" value="Fuse" style="swimlane;fontStyle=1;align=center;verticalAlign=top;childLayout=stackLayout;horizontal=1;startSize=26;horizontalStack=0;resizeParent=1;resizeParentMax=0;resizeLast=0;collapsible=1;marginBottom=0;movable=1;resizable=1;rotatable=1;deletable=1;editable=1;locked=0;connectable=1;" parent="1" vertex="1">
                    <mxGeometry x="655" y="-355" width="273" height="216" as="geometry"/>
                </mxCell>
                <mxCell id="16" value="+ list: Array" style="text;strokeColor=none;fillColor=none;align=left;verticalAlign=top;spacingLeft=4;spacingRight=4;overflow=hidden;rotatable=1;points=[[0,0.5],[1,0.5]];portConstraint=eastwest;movable=1;resizable=1;deletable=1;editable=1;locked=0;connectable=1;" parent="15" vertex="1">
                    <mxGeometry y="26" width="273" height="26" as="geometry"/>
                </mxCell>
                <mxCell id="19" value="+ keys: String[]" style="text;strokeColor=none;fillColor=none;align=left;verticalAlign=top;spacingLeft=4;spacingRight=4;overflow=hidden;rotatable=1;points=[[0,0.5],[1,0.5]];portConstraint=eastwest;movable=1;resizable=1;deletable=1;editable=1;locked=0;connectable=1;" parent="15" vertex="1">
                    <mxGeometry y="52" width="273" height="26" as="geometry"/>
                </mxCell>
                <mxCell id="20" value="+ threshold: Number" style="text;strokeColor=none;fillColor=none;align=left;verticalAlign=top;spacingLeft=4;spacingRight=4;overflow=hidden;rotatable=1;points=[[0,0.5],[1,0.5]];portConstraint=eastwest;movable=1;resizable=1;deletable=1;editable=1;locked=0;connectable=1;" parent="15" vertex="1">
                    <mxGeometry y="78" width="273" height="26" as="geometry"/>
                </mxCell>
                <mxCell id="21" value="+ limit: Number" style="text;strokeColor=none;fillColor=none;align=left;verticalAlign=top;spacingLeft=4;spacingRight=4;overflow=hidden;rotatable=1;points=[[0,0.5],[1,0.5]];portConstraint=eastwest;movable=1;resizable=1;deletable=1;editable=1;locked=0;connectable=1;" parent="15" vertex="1">
                    <mxGeometry y="104" width="273" height="26" as="geometry"/>
                </mxCell>
                <mxCell id="17" value="" style="line;strokeWidth=1;fillColor=none;align=left;verticalAlign=middle;spacingTop=-1;spacingLeft=3;spacingRight=3;rotatable=1;labelPosition=right;points=[];portConstraint=eastwest;strokeColor=inherit;movable=1;resizable=1;deletable=1;editable=1;locked=0;connectable=1;" parent="15" vertex="1">
                    <mxGeometry y="130" width="273" height="8" as="geometry"/>
                </mxCell>
                <mxCell id="89" value="&lt;&lt;Create&gt;&gt; Fuse(list: Array, fuseOptions: Object)" style="text;strokeColor=none;fillColor=none;align=left;verticalAlign=top;spacingLeft=4;spacingRight=4;overflow=hidden;rotatable=1;points=[[0,0.5],[1,0.5]];portConstraint=eastwest;movable=1;resizable=1;deletable=1;editable=1;locked=0;connectable=1;" parent="15" vertex="1">
                    <mxGeometry y="138" width="273" height="26" as="geometry"/>
                </mxCell>
                <mxCell id="18" value="+ search(query: String, Object): Object[]" style="text;strokeColor=none;fillColor=none;align=left;verticalAlign=top;spacingLeft=4;spacingRight=4;overflow=hidden;rotatable=1;points=[[0,0.5],[1,0.5]];portConstraint=eastwest;movable=1;resizable=1;deletable=1;editable=1;locked=0;connectable=1;" parent="15" vertex="1">
                    <mxGeometry y="164" width="273" height="26" as="geometry"/>
                </mxCell>
                <mxCell id="42" value="+ ..." style="text;strokeColor=none;fillColor=none;align=left;verticalAlign=top;spacingLeft=4;spacingRight=4;overflow=hidden;rotatable=1;points=[[0,0.5],[1,0.5]];portConstraint=eastwest;movable=1;resizable=1;deletable=1;editable=1;locked=0;connectable=1;" parent="15" vertex="1">
                    <mxGeometry y="190" width="273" height="26" as="geometry"/>
                </mxCell>
                <mxCell id="37" value="bootstrap.Modal" style="swimlane;fontStyle=1;align=center;verticalAlign=top;childLayout=stackLayout;horizontal=1;startSize=26;horizontalStack=0;resizeParent=1;resizeParentMax=0;resizeLast=0;collapsible=1;marginBottom=0;movable=1;resizable=1;rotatable=1;deletable=1;editable=1;locked=0;connectable=1;" parent="1" vertex="1">
                    <mxGeometry x="652" y="-833" width="160" height="138" as="geometry"/>
                </mxCell>
                <mxCell id="38" value="+ ..." style="text;strokeColor=none;fillColor=none;align=left;verticalAlign=top;spacingLeft=4;spacingRight=4;overflow=hidden;rotatable=1;points=[[0,0.5],[1,0.5]];portConstraint=eastwest;movable=1;resizable=1;deletable=1;editable=1;locked=0;connectable=1;" parent="37" vertex="1">
                    <mxGeometry y="26" width="160" height="26" as="geometry"/>
                </mxCell>
                <mxCell id="39" value="" style="line;strokeWidth=1;fillColor=none;align=left;verticalAlign=middle;spacingTop=-1;spacingLeft=3;spacingRight=3;rotatable=1;labelPosition=right;points=[];portConstraint=eastwest;strokeColor=inherit;movable=1;resizable=1;deletable=1;editable=1;locked=0;connectable=1;" parent="37" vertex="1">
                    <mxGeometry y="52" width="160" height="8" as="geometry"/>
                </mxCell>
                <mxCell id="88" value="&lt;&lt;Create&gt;&gt; Modal(String)" style="text;strokeColor=none;fillColor=none;align=left;verticalAlign=top;spacingLeft=4;spacingRight=4;overflow=hidden;rotatable=1;points=[[0,0.5],[1,0.5]];portConstraint=eastwest;movable=1;resizable=1;deletable=1;editable=1;locked=0;connectable=1;" parent="37" vertex="1">
                    <mxGeometry y="60" width="160" height="26" as="geometry"/>
                </mxCell>
                <mxCell id="40" value="+ hide()" style="text;strokeColor=none;fillColor=none;align=left;verticalAlign=top;spacingLeft=4;spacingRight=4;overflow=hidden;rotatable=1;points=[[0,0.5],[1,0.5]];portConstraint=eastwest;movable=1;resizable=1;deletable=1;editable=1;locked=0;connectable=1;" parent="37" vertex="1">
                    <mxGeometry y="86" width="160" height="26" as="geometry"/>
                </mxCell>
                <mxCell id="41" value="+ ..." style="text;strokeColor=none;fillColor=none;align=left;verticalAlign=top;spacingLeft=4;spacingRight=4;overflow=hidden;rotatable=1;points=[[0,0.5],[1,0.5]];portConstraint=eastwest;movable=1;resizable=1;deletable=1;editable=1;locked=0;connectable=1;" parent="37" vertex="1">
                    <mxGeometry y="112" width="160" height="26" as="geometry"/>
                </mxCell>
                <mxCell id="44" value="L.DomUtil" style="swimlane;fontStyle=1;align=center;verticalAlign=top;childLayout=stackLayout;horizontal=1;startSize=26;horizontalStack=0;resizeParent=1;resizeParentMax=0;resizeLast=0;collapsible=1;marginBottom=0;movable=1;resizable=1;rotatable=1;deletable=1;editable=1;locked=0;connectable=1;" parent="1" vertex="1">
                    <mxGeometry x="328" y="-857" width="256" height="164" as="geometry"/>
                </mxCell>
                <mxCell id="45" value="+ id: String" style="text;strokeColor=none;fillColor=none;align=left;verticalAlign=top;spacingLeft=4;spacingRight=4;overflow=hidden;rotatable=1;points=[[0,0.5],[1,0.5]];portConstraint=eastwest;movable=1;resizable=1;deletable=1;editable=1;locked=0;connectable=1;" parent="44" vertex="1">
                    <mxGeometry y="26" width="256" height="26" as="geometry"/>
                </mxCell>
                <mxCell id="49" value="+ innerHTML: String" style="text;strokeColor=none;fillColor=none;align=left;verticalAlign=top;spacingLeft=4;spacingRight=4;overflow=hidden;rotatable=1;points=[[0,0.5],[1,0.5]];portConstraint=eastwest;movable=1;resizable=1;deletable=1;editable=1;locked=0;connectable=1;" parent="44" vertex="1">
                    <mxGeometry y="52" width="256" height="26" as="geometry"/>
                </mxCell>
                <mxCell id="50" value="+ ..." style="text;strokeColor=none;fillColor=none;align=left;verticalAlign=top;spacingLeft=4;spacingRight=4;overflow=hidden;rotatable=1;points=[[0,0.5],[1,0.5]];portConstraint=eastwest;movable=1;resizable=1;deletable=1;editable=1;locked=0;connectable=1;" parent="44" vertex="1">
                    <mxGeometry y="78" width="256" height="26" as="geometry"/>
                </mxCell>
                <mxCell id="46" value="" style="line;strokeWidth=1;fillColor=none;align=left;verticalAlign=middle;spacingTop=-1;spacingLeft=3;spacingRight=3;rotatable=1;labelPosition=right;points=[];portConstraint=eastwest;strokeColor=inherit;movable=1;resizable=1;deletable=1;editable=1;locked=0;connectable=1;" parent="44" vertex="1">
                    <mxGeometry y="104" width="256" height="8" as="geometry"/>
                </mxCell>
                <mxCell id="47" value="+ create(tagName: String, className: String)" style="text;strokeColor=none;fillColor=none;align=left;verticalAlign=top;spacingLeft=4;spacingRight=4;overflow=hidden;rotatable=1;points=[[0,0.5],[1,0.5]];portConstraint=eastwest;movable=1;resizable=1;deletable=1;editable=1;locked=0;connectable=1;" parent="44" vertex="1">
                    <mxGeometry y="112" width="256" height="26" as="geometry"/>
                </mxCell>
                <mxCell id="48" value="+ ..." style="text;strokeColor=none;fillColor=none;align=left;verticalAlign=top;spacingLeft=4;spacingRight=4;overflow=hidden;rotatable=1;points=[[0,0.5],[1,0.5]];portConstraint=eastwest;movable=1;resizable=1;deletable=1;editable=1;locked=0;connectable=1;" parent="44" vertex="1">
                    <mxGeometry y="138" width="256" height="26" as="geometry"/>
                </mxCell>
                <mxCell id="51" value="BinaryHeap" style="swimlane;fontStyle=1;align=center;verticalAlign=top;childLayout=stackLayout;horizontal=1;startSize=26;horizontalStack=0;resizeParent=1;resizeParentMax=0;resizeLast=0;collapsible=1;marginBottom=0;movable=1;resizable=1;rotatable=1;deletable=1;editable=1;locked=0;connectable=1;" parent="1" vertex="1">
                    <mxGeometry x="-1006" y="-738.5" width="276" height="346" as="geometry">
                        <mxRectangle x="-866" y="-478" width="102" height="26" as="alternateBounds"/>
                    </mxGeometry>
                </mxCell>
                <mxCell id="52" value="+ content: Object[]" style="text;strokeColor=none;fillColor=none;align=left;verticalAlign=top;spacingLeft=4;spacingRight=4;overflow=hidden;rotatable=1;points=[[0,0.5],[1,0.5]];portConstraint=eastwest;movable=1;resizable=1;deletable=1;editable=1;locked=0;connectable=1;" parent="51" vertex="1">
                    <mxGeometry y="26" width="276" height="26" as="geometry"/>
                </mxCell>
                <mxCell id="68" value="+ scoreFunction: Function" style="text;strokeColor=none;fillColor=none;align=left;verticalAlign=top;spacingLeft=4;spacingRight=4;overflow=hidden;rotatable=1;points=[[0,0.5],[1,0.5]];portConstraint=eastwest;movable=1;resizable=1;deletable=1;editable=1;locked=0;connectable=1;" parent="51" vertex="1">
                    <mxGeometry y="52" width="276" height="26" as="geometry"/>
                </mxCell>
                <mxCell id="53" value="" style="line;strokeWidth=1;fillColor=none;align=left;verticalAlign=middle;spacingTop=-1;spacingLeft=3;spacingRight=3;rotatable=1;labelPosition=right;points=[];portConstraint=eastwest;strokeColor=inherit;movable=1;resizable=1;deletable=1;editable=1;locked=0;connectable=1;" parent="51" vertex="1">
                    <mxGeometry y="78" width="276" height="8" as="geometry"/>
                </mxCell>
                <mxCell id="83" value="&lt;&lt;Create&gt;&gt; BinaryHeap(scoreFunction: Function)" style="text;strokeColor=none;fillColor=none;align=left;verticalAlign=top;spacingLeft=4;spacingRight=4;overflow=hidden;rotatable=1;points=[[0,0.5],[1,0.5]];portConstraint=eastwest;movable=1;resizable=1;deletable=1;editable=1;locked=0;connectable=1;" parent="51" vertex="1">
                    <mxGeometry y="86" width="276" height="26" as="geometry"/>
                </mxCell>
                <mxCell id="60" value="- childIndices(parentIndex: Number): Number[]" style="text;strokeColor=none;fillColor=none;align=left;verticalAlign=top;spacingLeft=4;spacingRight=4;overflow=hidden;rotatable=1;points=[[0,0.5],[1,0.5]];portConstraint=eastwest;movable=1;resizable=1;deletable=1;editable=1;locked=0;connectable=1;" parent="51" vertex="1">
                    <mxGeometry y="112" width="276" height="26" as="geometry"/>
                </mxCell>
                <mxCell id="61" value="- parentIndex(childIndex: Number): Number" style="text;strokeColor=none;fillColor=none;align=left;verticalAlign=top;spacingLeft=4;spacingRight=4;overflow=hidden;rotatable=1;points=[[0,0.5],[1,0.5]];portConstraint=eastwest;movable=1;resizable=1;deletable=1;editable=1;locked=0;connectable=1;" parent="51" vertex="1">
                    <mxGeometry y="138" width="276" height="26" as="geometry"/>
                </mxCell>
                <mxCell id="63" value="- siftDown(index: Number)" style="text;strokeColor=none;fillColor=none;align=left;verticalAlign=top;spacingLeft=4;spacingRight=4;overflow=hidden;rotatable=1;points=[[0,0.5],[1,0.5]];portConstraint=eastwest;movable=1;resizable=1;deletable=1;editable=1;locked=0;connectable=1;" parent="51" vertex="1">
                    <mxGeometry y="164" width="276" height="26" as="geometry"/>
                </mxCell>
                <mxCell id="65" value="- bubbleUp(index: Number)" style="text;strokeColor=none;fillColor=none;align=left;verticalAlign=top;spacingLeft=4;spacingRight=4;overflow=hidden;rotatable=1;points=[[0,0.5],[1,0.5]];portConstraint=eastwest;movable=1;resizable=1;deletable=1;editable=1;locked=0;connectable=1;" parent="51" vertex="1">
                    <mxGeometry y="190" width="276" height="26" as="geometry"/>
                </mxCell>
                <mxCell id="62" value="+ swap(Number, Number)" style="text;strokeColor=none;fillColor=none;align=left;verticalAlign=top;spacingLeft=4;spacingRight=4;overflow=hidden;rotatable=1;points=[[0,0.5],[1,0.5]];portConstraint=eastwest;movable=1;resizable=1;deletable=1;editable=1;locked=0;connectable=1;" parent="51" vertex="1">
                    <mxGeometry y="216" width="276" height="26" as="geometry"/>
                </mxCell>
                <mxCell id="64" value="+ build()" style="text;strokeColor=none;fillColor=none;align=left;verticalAlign=top;spacingLeft=4;spacingRight=4;overflow=hidden;rotatable=1;points=[[0,0.5],[1,0.5]];portConstraint=eastwest;movable=1;resizable=1;deletable=1;editable=1;locked=0;connectable=1;" parent="51" vertex="1">
                    <mxGeometry y="242" width="276" height="26" as="geometry"/>
                </mxCell>
                <mxCell id="66" value="+ push(Object)" style="text;strokeColor=none;fillColor=none;align=left;verticalAlign=top;spacingLeft=4;spacingRight=4;overflow=hidden;rotatable=1;points=[[0,0.5],[1,0.5]];portConstraint=eastwest;movable=1;resizable=1;deletable=1;editable=1;locked=0;connectable=1;" parent="51" vertex="1">
                    <mxGeometry y="268" width="276" height="26" as="geometry"/>
                </mxCell>
                <mxCell id="67" value="+ pop(): Object" style="text;strokeColor=none;fillColor=none;align=left;verticalAlign=top;spacingLeft=4;spacingRight=4;overflow=hidden;rotatable=1;points=[[0,0.5],[1,0.5]];portConstraint=eastwest;movable=1;resizable=1;deletable=1;editable=1;locked=0;connectable=1;" parent="51" vertex="1">
                    <mxGeometry y="294" width="276" height="26" as="geometry"/>
                </mxCell>
                <mxCell id="69" value="+ reScore(Object)" style="text;strokeColor=none;fillColor=none;align=left;verticalAlign=top;spacingLeft=4;spacingRight=4;overflow=hidden;rotatable=1;points=[[0,0.5],[1,0.5]];portConstraint=eastwest;movable=1;resizable=1;deletable=1;editable=1;locked=0;connectable=1;" parent="51" vertex="1">
                    <mxGeometry y="320" width="276" height="26" as="geometry"/>
                </mxCell>
                <mxCell id="55" value="Astar" style="swimlane;fontStyle=1;align=center;verticalAlign=top;childLayout=stackLayout;horizontal=1;startSize=26;horizontalStack=0;resizeParent=1;resizeParentMax=0;resizeLast=0;collapsible=1;marginBottom=0;movable=1;resizable=1;rotatable=1;deletable=1;editable=1;locked=0;connectable=1;" parent="1" vertex="1">
                    <mxGeometry x="-1006" y="-113" width="399" height="450" as="geometry"/>
                </mxCell>
                <mxCell id="56" value="+ graph: Node[]" style="text;strokeColor=none;fillColor=none;align=left;verticalAlign=top;spacingLeft=4;spacingRight=4;overflow=hidden;rotatable=1;points=[[0,0.5],[1,0.5]];portConstraint=eastwest;movable=1;resizable=1;deletable=1;editable=1;locked=0;connectable=1;" parent="55" vertex="1">
                    <mxGeometry y="26" width="399" height="26" as="geometry"/>
                </mxCell>
                <mxCell id="74" value="+ dirtyNodes: Node[]" style="text;strokeColor=none;fillColor=none;align=left;verticalAlign=top;spacingLeft=4;spacingRight=4;overflow=hidden;rotatable=1;points=[[0,0.5],[1,0.5]];portConstraint=eastwest;movable=1;resizable=1;deletable=1;editable=1;locked=0;connectable=1;" parent="55" vertex="1">
                    <mxGeometry y="52" width="399" height="26" as="geometry"/>
                </mxCell>
                <mxCell id="80" value="+ polyline: Polyline" style="text;strokeColor=none;fillColor=none;align=left;verticalAlign=top;spacingLeft=4;spacingRight=4;overflow=hidden;rotatable=1;points=[[0,0.5],[1,0.5]];portConstraint=eastwest;movable=1;resizable=1;deletable=1;editable=1;locked=0;connectable=1;" parent="55" vertex="1">
                    <mxGeometry y="78" width="399" height="26" as="geometry"/>
                </mxCell>
                <mxCell id="57" value="" style="line;strokeWidth=1;fillColor=none;align=left;verticalAlign=middle;spacingTop=-1;spacingLeft=3;spacingRight=3;rotatable=1;labelPosition=right;points=[];portConstraint=eastwest;strokeColor=inherit;movable=1;resizable=1;deletable=1;editable=1;locked=0;connectable=1;" parent="55" vertex="1">
                    <mxGeometry y="104" width="399" height="8" as="geometry"/>
                </mxCell>
                <mxCell id="84" value="&lt;&lt;Create&gt;&gt; Astar(graph: Node[])" style="text;strokeColor=none;fillColor=none;align=left;verticalAlign=top;spacingLeft=4;spacingRight=4;overflow=hidden;rotatable=1;points=[[0,0.5],[1,0.5]];portConstraint=eastwest;movable=1;resizable=1;deletable=1;editable=1;locked=0;connectable=1;" parent="55" vertex="1">
                    <mxGeometry y="112" width="399" height="26" as="geometry"/>
                </mxCell>
                <mxCell id="58" value="+ search(start: Node, endIndex: Number): Node[]" style="text;strokeColor=none;fillColor=none;align=left;verticalAlign=top;spacingLeft=4;spacingRight=4;overflow=hidden;rotatable=1;points=[[0,0.5],[1,0.5]];portConstraint=eastwest;movable=1;resizable=1;deletable=1;editable=1;locked=0;connectable=1;" parent="55" vertex="1">
                    <mxGeometry y="138" width="399" height="26" as="geometry"/>
                </mxCell>
                <mxCell id="70" value="- expandNode(currentNode: Node, openList: BinaryHeap, end: Node)" style="text;strokeColor=none;fillColor=none;align=left;verticalAlign=top;spacingLeft=4;spacingRight=4;overflow=hidden;rotatable=1;points=[[0,0.5],[1,0.5]];portConstraint=eastwest;movable=1;resizable=1;deletable=1;editable=1;locked=0;connectable=1;" parent="55" vertex="1">
                    <mxGeometry y="164" width="399" height="26" as="geometry"/>
                </mxCell>
                <mxCell id="71" value="+ getNeighbors(Node): Node[]" style="text;strokeColor=none;fillColor=none;align=left;verticalAlign=top;spacingLeft=4;spacingRight=4;overflow=hidden;rotatable=1;points=[[0,0.5],[1,0.5]];portConstraint=eastwest;movable=1;resizable=1;deletable=1;editable=1;locked=0;connectable=1;" parent="55" vertex="1">
                    <mxGeometry y="190" width="399" height="26" as="geometry"/>
                </mxCell>
                <mxCell id="72" value="- markDirty(Node)" style="text;strokeColor=none;fillColor=none;align=left;verticalAlign=top;spacingLeft=4;spacingRight=4;overflow=hidden;rotatable=1;points=[[0,0.5],[1,0.5]];portConstraint=eastwest;movable=1;resizable=1;deletable=1;editable=1;locked=0;connectable=1;" parent="55" vertex="1">
                    <mxGeometry y="216" width="399" height="26" as="geometry"/>
                </mxCell>
                <mxCell id="73" value="- cleanDirty()" style="text;strokeColor=none;fillColor=none;align=left;verticalAlign=top;spacingLeft=4;spacingRight=4;overflow=hidden;rotatable=1;points=[[0,0.5],[1,0.5]];portConstraint=eastwest;movable=1;resizable=1;deletable=1;editable=1;locked=0;connectable=1;" parent="55" vertex="1">
                    <mxGeometry y="242" width="399" height="26" as="geometry"/>
                </mxCell>
                <mxCell id="75" value="- cleanNode(Node)" style="text;strokeColor=none;fillColor=none;align=left;verticalAlign=top;spacingLeft=4;spacingRight=4;overflow=hidden;rotatable=1;points=[[0,0.5],[1,0.5]];portConstraint=eastwest;movable=1;resizable=1;deletable=1;editable=1;locked=0;connectable=1;" parent="55" vertex="1">
                    <mxGeometry y="268" width="399" height="26" as="geometry"/>
                </mxCell>
                <mxCell id="76" value="- heuristic(start: Node, end: Node): Number" style="text;strokeColor=none;fillColor=none;align=left;verticalAlign=top;spacingLeft=4;spacingRight=4;overflow=hidden;rotatable=1;points=[[0,0.5],[1,0.5]];portConstraint=eastwest;movable=1;resizable=1;deletable=1;editable=1;locked=0;connectable=1;" parent="55" vertex="1">
                    <mxGeometry y="294" width="399" height="26" as="geometry"/>
                </mxCell>
                <mxCell id="77" value="- pathTo(Node): Node[]" style="text;strokeColor=none;fillColor=none;align=left;verticalAlign=top;spacingLeft=4;spacingRight=4;overflow=hidden;rotatable=1;points=[[0,0.5],[1,0.5]];portConstraint=eastwest;movable=1;resizable=1;deletable=1;editable=1;locked=0;connectable=1;" parent="55" vertex="1">
                    <mxGeometry y="320" width="399" height="26" as="geometry"/>
                </mxCell>
                <mxCell id="78" value="- drawRoute(Node[])" style="text;strokeColor=none;fillColor=none;align=left;verticalAlign=top;spacingLeft=4;spacingRight=4;overflow=hidden;rotatable=1;points=[[0,0.5],[1,0.5]];portConstraint=eastwest;movable=1;resizable=1;deletable=1;editable=1;locked=0;connectable=1;" parent="55" vertex="1">
                    <mxGeometry y="346" width="399" height="26" as="geometry"/>
                </mxCell>
                <mxCell id="79" value="+ hideRoute()" style="text;strokeColor=none;fillColor=none;align=left;verticalAlign=top;spacingLeft=4;spacingRight=4;overflow=hidden;rotatable=1;points=[[0,0.5],[1,0.5]];portConstraint=eastwest;movable=1;resizable=1;deletable=1;editable=1;locked=0;connectable=1;" parent="55" vertex="1">
                    <mxGeometry y="372" width="399" height="26" as="geometry"/>
                </mxCell>
                <mxCell id="81" value="+ nearestNode(position: Object, graph: Node[]): Node" style="text;strokeColor=none;fillColor=none;align=left;verticalAlign=top;spacingLeft=4;spacingRight=4;overflow=hidden;rotatable=1;points=[[0,0.5],[1,0.5]];portConstraint=eastwest;movable=1;resizable=1;deletable=1;editable=1;locked=0;connectable=1;" parent="55" vertex="1">
                    <mxGeometry y="398" width="399" height="26" as="geometry"/>
                </mxCell>
                <mxCell id="108" value="+ getDirection(): String[]" style="text;strokeColor=none;fillColor=none;align=left;verticalAlign=top;spacingLeft=4;spacingRight=4;overflow=hidden;rotatable=1;points=[[0,0.5],[1,0.5]];portConstraint=eastwest;movable=1;resizable=1;deletable=1;editable=1;locked=0;connectable=1;" parent="55" vertex="1">
                    <mxGeometry y="424" width="399" height="26" as="geometry"/>
                </mxCell>
                <mxCell id="92" value="Html5QrcodeScanner" style="swimlane;fontStyle=1;align=center;verticalAlign=top;childLayout=stackLayout;horizontal=1;startSize=26;horizontalStack=0;resizeParent=1;resizeParentMax=0;resizeLast=0;collapsible=1;marginBottom=0;movable=1;resizable=1;rotatable=1;deletable=1;editable=1;locked=0;connectable=1;" parent="1" vertex="1">
                    <mxGeometry x="658" y="-594.5" width="331" height="138" as="geometry"/>
                </mxCell>
                <mxCell id="93" value="+ ..." style="text;strokeColor=none;fillColor=none;align=left;verticalAlign=top;spacingLeft=4;spacingRight=4;overflow=hidden;rotatable=1;points=[[0,0.5],[1,0.5]];portConstraint=eastwest;movable=1;resizable=1;deletable=1;editable=1;locked=0;connectable=1;" parent="92" vertex="1">
                    <mxGeometry y="26" width="331" height="26" as="geometry"/>
                </mxCell>
                <mxCell id="94" value="" style="line;strokeWidth=1;fillColor=none;align=left;verticalAlign=middle;spacingTop=-1;spacingLeft=3;spacingRight=3;rotatable=1;labelPosition=right;points=[];portConstraint=eastwest;strokeColor=inherit;movable=1;resizable=1;deletable=1;editable=1;locked=0;connectable=1;" parent="92" vertex="1">
                    <mxGeometry y="52" width="331" height="8" as="geometry"/>
                </mxCell>
                <mxCell id="95" value="&lt;&lt;Create&gt;&gt; Html5QrcodeScanner(String, Object, Boolean)" style="text;strokeColor=none;fillColor=none;align=left;verticalAlign=top;spacingLeft=4;spacingRight=4;overflow=hidden;rotatable=1;points=[[0,0.5],[1,0.5]];portConstraint=eastwest;movable=1;resizable=1;deletable=1;editable=1;locked=0;connectable=1;" parent="92" vertex="1">
                    <mxGeometry y="60" width="331" height="26" as="geometry"/>
                </mxCell>
                <mxCell id="96" value="+ render(Function, Function)" style="text;strokeColor=none;fillColor=none;align=left;verticalAlign=top;spacingLeft=4;spacingRight=4;overflow=hidden;rotatable=1;points=[[0,0.5],[1,0.5]];portConstraint=eastwest;movable=1;resizable=1;deletable=1;editable=1;locked=0;connectable=1;" parent="92" vertex="1">
                    <mxGeometry y="86" width="331" height="26" as="geometry"/>
                </mxCell>
                <mxCell id="97" value="+ ..." style="text;strokeColor=none;fillColor=none;align=left;verticalAlign=top;spacingLeft=4;spacingRight=4;overflow=hidden;rotatable=1;points=[[0,0.5],[1,0.5]];portConstraint=eastwest;movable=1;resizable=1;deletable=1;editable=1;locked=0;connectable=1;" parent="92" vertex="1">
                    <mxGeometry y="112" width="331" height="26" as="geometry"/>
                </mxCell>
                <mxCell id="100" value="&lt;b&gt;L.Control.Search&lt;/b&gt;" style="html=1;movable=1;resizable=1;rotatable=1;deletable=1;editable=1;locked=0;connectable=1;" parent="1" vertex="1">
                    <mxGeometry x="-541" y="-712" width="152" height="50" as="geometry"/>
                </mxCell>
                <mxCell id="101" value="&lt;b&gt;L.Control.QRButton&lt;/b&gt;" style="html=1;movable=1;resizable=1;rotatable=1;deletable=1;editable=1;locked=0;connectable=1;" parent="1" vertex="1">
                    <mxGeometry x="-541" y="-587" width="151" height="50" as="geometry"/>
                </mxCell>
                <mxCell id="102" value="&lt;b&gt;L.Control.Compass&lt;/b&gt;" style="html=1;movable=1;resizable=1;rotatable=1;deletable=1;editable=1;locked=0;connectable=1;" parent="1" vertex="1">
                    <mxGeometry x="-541" y="-518" width="151" height="50" as="geometry"/>
                </mxCell>
                <mxCell id="103" value="&lt;b&gt;L.Control.GraphButtons&lt;/b&gt;" style="html=1;movable=1;resizable=1;rotatable=1;deletable=1;editable=1;locked=0;connectable=1;" parent="1" vertex="1">
                    <mxGeometry x="-541" y="-647" width="152" height="50" as="geometry"/>
                </mxCell>
                <mxCell id="104" value="Extends" style="endArrow=block;endSize=16;endFill=0;html=1;entryX=0;entryY=0;entryDx=0;entryDy=0;exitX=1;exitY=0.5;exitDx=0;exitDy=0;movable=1;resizable=1;rotatable=1;deletable=1;editable=1;locked=0;connectable=1;" parent="1" source="100" target="eqyPjIkJq11NoU5mD4Jg-10" edge="1">
                    <mxGeometry width="160" relative="1" as="geometry">
                        <mxPoint x="740" y="124" as="sourcePoint"/>
                        <mxPoint x="900" y="124" as="targetPoint"/>
                    </mxGeometry>
                </mxCell>
                <mxCell id="105" value="Extends" style="endArrow=block;endSize=16;endFill=0;html=1;entryX=0;entryY=0.5;entryDx=0;entryDy=0;exitX=1;exitY=0.5;exitDx=0;exitDy=0;movable=1;resizable=1;rotatable=1;deletable=1;editable=1;locked=0;connectable=1;" parent="1" source="103" target="eqyPjIkJq11NoU5mD4Jg-11" edge="1">
                    <mxGeometry width="160" relative="1" as="geometry">
                        <mxPoint x="766" y="-162" as="sourcePoint"/>
                        <mxPoint x="627" y="-1" as="targetPoint"/>
                    </mxGeometry>
                </mxCell>
                <mxCell id="106" value="Extends" style="endArrow=block;endSize=16;endFill=0;html=1;entryX=0;entryY=0.5;entryDx=0;entryDy=0;exitX=1;exitY=0.5;exitDx=0;exitDy=0;movable=1;resizable=1;rotatable=1;deletable=1;editable=1;locked=0;connectable=1;" parent="1" source="101" target="eqyPjIkJq11NoU5mD4Jg-13" edge="1">
                    <mxGeometry width="160" relative="1" as="geometry">
                        <mxPoint x="766" y="-97" as="sourcePoint"/>
                        <mxPoint x="628.6000000000004" y="16.680000000000064" as="targetPoint"/>
                    </mxGeometry>
                </mxCell>
                <mxCell id="107" value="Extends" style="endArrow=block;endSize=16;endFill=0;html=1;exitX=1;exitY=0.5;exitDx=0;exitDy=0;entryX=0;entryY=0.5;entryDx=0;entryDy=0;movable=1;resizable=1;rotatable=1;deletable=1;editable=1;locked=0;connectable=1;" parent="1" source="102" target="eqyPjIkJq11NoU5mD4Jg-14" edge="1">
                    <mxGeometry width="160" relative="1" as="geometry">
                        <mxPoint x="766" y="-37" as="sourcePoint"/>
                        <mxPoint x="631" y="56" as="targetPoint"/>
                    </mxGeometry>
                </mxCell>
                <mxCell id="109" value="bootstrap.Offcanvas" style="swimlane;fontStyle=1;align=center;verticalAlign=top;childLayout=stackLayout;horizontal=1;startSize=26;horizontalStack=0;resizeParent=1;resizeParentMax=0;resizeLast=0;collapsible=1;marginBottom=0;movable=1;resizable=1;rotatable=1;deletable=1;editable=1;locked=0;connectable=1;" parent="1" vertex="1">
                    <mxGeometry x="833" y="-833" width="173" height="138" as="geometry"/>
                </mxCell>
                <mxCell id="110" value="+ ..." style="text;strokeColor=none;fillColor=none;align=left;verticalAlign=top;spacingLeft=4;spacingRight=4;overflow=hidden;rotatable=1;points=[[0,0.5],[1,0.5]];portConstraint=eastwest;movable=1;resizable=1;deletable=1;editable=1;locked=0;connectable=1;" parent="109" vertex="1">
                    <mxGeometry y="26" width="173" height="26" as="geometry"/>
                </mxCell>
                <mxCell id="111" value="" style="line;strokeWidth=1;fillColor=none;align=left;verticalAlign=middle;spacingTop=-1;spacingLeft=3;spacingRight=3;rotatable=1;labelPosition=right;points=[];portConstraint=eastwest;strokeColor=inherit;movable=1;resizable=1;deletable=1;editable=1;locked=0;connectable=1;" parent="109" vertex="1">
                    <mxGeometry y="52" width="173" height="8" as="geometry"/>
                </mxCell>
                <mxCell id="112" value="&lt;&lt;Create&gt;&gt; Offcanvas(String)" style="text;strokeColor=none;fillColor=none;align=left;verticalAlign=top;spacingLeft=4;spacingRight=4;overflow=hidden;rotatable=1;points=[[0,0.5],[1,0.5]];portConstraint=eastwest;movable=1;resizable=1;deletable=1;editable=1;locked=0;connectable=1;" parent="109" vertex="1">
                    <mxGeometry y="60" width="173" height="26" as="geometry"/>
                </mxCell>
                <mxCell id="113" value="+ hide()" style="text;strokeColor=none;fillColor=none;align=left;verticalAlign=top;spacingLeft=4;spacingRight=4;overflow=hidden;rotatable=1;points=[[0,0.5],[1,0.5]];portConstraint=eastwest;movable=1;resizable=1;deletable=1;editable=1;locked=0;connectable=1;" parent="109" vertex="1">
                    <mxGeometry y="86" width="173" height="26" as="geometry"/>
                </mxCell>
                <mxCell id="114" value="+ ..." style="text;strokeColor=none;fillColor=none;align=left;verticalAlign=top;spacingLeft=4;spacingRight=4;overflow=hidden;rotatable=1;points=[[0,0.5],[1,0.5]];portConstraint=eastwest;movable=1;resizable=1;deletable=1;editable=1;locked=0;connectable=1;" parent="109" vertex="1">
                    <mxGeometry y="112" width="173" height="26" as="geometry"/>
                </mxCell>
                <mxCell id="118" value="kalman-filter" style="shape=umlFrame;whiteSpace=wrap;html=1;width=89;height=27;movable=1;resizable=1;rotatable=1;deletable=1;editable=1;locked=0;connectable=1;" parent="1" vertex="1">
                    <mxGeometry x="639" y="-86" width="238" height="232" as="geometry"/>
                </mxCell>
                <mxCell id="119" value="KalmanFilter" style="swimlane;fontStyle=1;align=center;verticalAlign=top;childLayout=stackLayout;horizontal=1;startSize=26;horizontalStack=0;resizeParent=1;resizeParentMax=0;resizeLast=0;collapsible=1;marginBottom=0;movable=1;resizable=1;rotatable=1;deletable=1;editable=1;locked=0;connectable=1;" parent="1" vertex="1">
                    <mxGeometry x="665.5" y="-42" width="184" height="164" as="geometry"/>
                </mxCell>
                <mxCell id="120" value="+ observation: Object" style="text;strokeColor=none;fillColor=none;align=left;verticalAlign=top;spacingLeft=4;spacingRight=4;overflow=hidden;rotatable=1;points=[[0,0.5],[1,0.5]];portConstraint=eastwest;movable=1;resizable=1;deletable=1;editable=1;locked=0;connectable=1;" parent="119" vertex="1">
                    <mxGeometry y="26" width="184" height="26" as="geometry"/>
                </mxCell>
                <mxCell id="123" value="+ dynamic: Object" style="text;strokeColor=none;fillColor=none;align=left;verticalAlign=top;spacingLeft=4;spacingRight=4;overflow=hidden;rotatable=1;points=[[0,0.5],[1,0.5]];portConstraint=eastwest;movable=1;resizable=1;deletable=1;editable=1;locked=0;connectable=1;" parent="119" vertex="1">
                    <mxGeometry y="52" width="184" height="26" as="geometry"/>
                </mxCell>
                <mxCell id="125" value="+ ..." style="text;strokeColor=none;fillColor=none;align=left;verticalAlign=top;spacingLeft=4;spacingRight=4;overflow=hidden;rotatable=1;points=[[0,0.5],[1,0.5]];portConstraint=eastwest;movable=1;resizable=1;deletable=1;editable=1;locked=0;connectable=1;" parent="119" vertex="1">
                    <mxGeometry y="78" width="184" height="26" as="geometry"/>
                </mxCell>
                <mxCell id="121" value="" style="line;strokeWidth=1;fillColor=none;align=left;verticalAlign=middle;spacingTop=-1;spacingLeft=3;spacingRight=3;rotatable=1;labelPosition=right;points=[];portConstraint=eastwest;strokeColor=inherit;movable=1;resizable=1;deletable=1;editable=1;locked=0;connectable=1;" parent="119" vertex="1">
                    <mxGeometry y="104" width="184" height="8" as="geometry"/>
                </mxCell>
                <mxCell id="122" value="+ filterAll(Array): Array" style="text;strokeColor=none;fillColor=none;align=left;verticalAlign=top;spacingLeft=4;spacingRight=4;overflow=hidden;rotatable=1;points=[[0,0.5],[1,0.5]];portConstraint=eastwest;movable=1;resizable=1;deletable=1;editable=1;locked=0;connectable=1;" parent="119" vertex="1">
                    <mxGeometry y="112" width="184" height="26" as="geometry"/>
                </mxCell>
                <mxCell id="124" value="+ ..." style="text;strokeColor=none;fillColor=none;align=left;verticalAlign=top;spacingLeft=4;spacingRight=4;overflow=hidden;rotatable=1;points=[[0,0.5],[1,0.5]];portConstraint=eastwest;movable=1;resizable=1;deletable=1;editable=1;locked=0;connectable=1;" parent="119" vertex="1">
                    <mxGeometry y="138" width="184" height="26" as="geometry"/>
                </mxCell>
                <mxCell id="126" value="&lt;b&gt;L.Control.Navigation&lt;/b&gt;" style="html=1;movable=1;resizable=1;rotatable=1;deletable=1;editable=1;locked=0;connectable=1;" parent="1" vertex="1">
                    <mxGeometry x="-540" y="-448" width="151" height="50" as="geometry"/>
                </mxCell>
                <mxCell id="127" value="Extends" style="endArrow=block;endSize=16;endFill=0;html=1;exitX=1;exitY=0.5;exitDx=0;exitDy=0;movable=1;resizable=1;rotatable=1;deletable=1;editable=1;locked=0;connectable=1;entryX=0;entryY=0.5;entryDx=0;entryDy=0;" parent="1" source="126" target="eqyPjIkJq11NoU5mD4Jg-15" edge="1">
                    <mxGeometry width="160" relative="1" as="geometry">
                        <mxPoint x="768" y="100" as="sourcePoint"/>
                        <mxPoint x="627" y="51" as="targetPoint"/>
                    </mxGeometry>
                </mxCell>
                <mxCell id="128" value="lodash" style="shape=umlFrame;whiteSpace=wrap;html=1;movable=1;resizable=1;rotatable=1;deletable=1;editable=1;locked=0;connectable=1;" parent="1" vertex="1">
                    <mxGeometry x="639" y="176" width="220" height="174" as="geometry"/>
                </mxCell>
                <mxCell id="133" value="_" style="swimlane;fontStyle=1;align=center;verticalAlign=top;childLayout=stackLayout;horizontal=1;startSize=26;horizontalStack=0;resizeParent=1;resizeParentMax=0;resizeLast=0;collapsible=1;marginBottom=0;movable=1;resizable=1;rotatable=1;deletable=1;editable=1;locked=0;connectable=1;" parent="1" vertex="1">
                    <mxGeometry x="659" y="218" width="182" height="112" as="geometry"/>
                </mxCell>
                <mxCell id="134" value="+ ..." style="text;strokeColor=none;fillColor=none;align=left;verticalAlign=top;spacingLeft=4;spacingRight=4;overflow=hidden;rotatable=1;points=[[0,0.5],[1,0.5]];portConstraint=eastwest;movable=1;resizable=1;deletable=1;editable=1;locked=0;connectable=1;" parent="133" vertex="1">
                    <mxGeometry y="26" width="182" height="26" as="geometry"/>
                </mxCell>
                <mxCell id="135" value="" style="line;strokeWidth=1;fillColor=none;align=left;verticalAlign=middle;spacingTop=-1;spacingLeft=3;spacingRight=3;rotatable=1;labelPosition=right;points=[];portConstraint=eastwest;strokeColor=inherit;movable=1;resizable=1;deletable=1;editable=1;locked=0;connectable=1;" parent="133" vertex="1">
                    <mxGeometry y="52" width="182" height="8" as="geometry"/>
                </mxCell>
                <mxCell id="136" value="+ isEqual(value, other): Boolean" style="text;strokeColor=none;fillColor=none;align=left;verticalAlign=top;spacingLeft=4;spacingRight=4;overflow=hidden;rotatable=1;points=[[0,0.5],[1,0.5]];portConstraint=eastwest;movable=1;resizable=1;deletable=1;editable=1;locked=0;connectable=1;" parent="133" vertex="1">
                    <mxGeometry y="60" width="182" height="26" as="geometry"/>
                </mxCell>
                <mxCell id="137" value="+ ..." style="text;strokeColor=none;fillColor=none;align=left;verticalAlign=top;spacingLeft=4;spacingRight=4;overflow=hidden;rotatable=1;points=[[0,0.5],[1,0.5]];portConstraint=eastwest;movable=1;resizable=1;deletable=1;editable=1;locked=0;connectable=1;" parent="133" vertex="1">
                    <mxGeometry y="86" width="182" height="26" as="geometry"/>
                </mxCell>
                <mxCell id="NY4owkkx7TGqezFvGEzK-138" value="" style="endArrow=diamondThin;endFill=0;endSize=24;html=1;rounded=0;entryX=0.5;entryY=0;entryDx=0;entryDy=0;" parent="1" source="4" target="4031oEJd7GCodYw7584o-7" edge="1">
                    <mxGeometry width="160" relative="1" as="geometry">
                        <mxPoint x="-602" y="143" as="sourcePoint"/>
                        <mxPoint x="-442" y="143" as="targetPoint"/>
                    </mxGeometry>
                </mxCell>
                <mxCell id="NY4owkkx7TGqezFvGEzK-139" value="" style="endArrow=diamondThin;endFill=0;endSize=24;html=1;rounded=0;entryX=1;entryY=0.5;entryDx=0;entryDy=0;exitX=0.004;exitY=0.269;exitDx=0;exitDy=0;edgeStyle=orthogonalEdgeStyle;exitPerimeter=0;" parent="1" source="47bcrhxyphqd8BRHlcOZ-2" target="82" edge="1">
                    <mxGeometry width="160" relative="1" as="geometry">
                        <mxPoint x="-98" y="-251" as="sourcePoint"/>
                        <mxPoint x="62" y="-251" as="targetPoint"/>
                    </mxGeometry>
                </mxCell>
                <mxCell id="NY4owkkx7TGqezFvGEzK-140" value="" style="endArrow=diamondThin;endFill=0;endSize=24;html=1;rounded=0;entryX=0.992;entryY=0.09;entryDx=0;entryDy=0;exitX=0;exitY=0.5;exitDx=0;exitDy=0;entryPerimeter=0;" parent="1" source="4031oEJd7GCodYw7584o-14" target="108" edge="1">
                    <mxGeometry width="160" relative="1" as="geometry">
                        <mxPoint x="-419" y="356" as="sourcePoint"/>
                        <mxPoint x="-259" y="356" as="targetPoint"/>
                    </mxGeometry>
                </mxCell>
                <mxCell id="NY4owkkx7TGqezFvGEzK-141" value="" style="endArrow=diamondThin;endFill=0;endSize=24;html=1;rounded=0;entryX=1;entryY=0.5;entryDx=0;entryDy=0;exitX=0;exitY=0.5;exitDx=0;exitDy=0;edgeStyle=orthogonalEdgeStyle;" parent="1" source="79ByzgNNwlD58r3_2kEv-2" target="74" edge="1">
                    <mxGeometry width="160" relative="1" as="geometry">
                        <mxPoint x="-542" y="4" as="sourcePoint"/>
                        <mxPoint x="-382" y="4" as="targetPoint"/>
                    </mxGeometry>
                </mxCell>
                <mxCell id="NY4owkkx7TGqezFvGEzK-142" value="Use" style="endArrow=open;endSize=12;dashed=1;html=1;rounded=0;entryX=0.525;entryY=1.025;entryDx=0;entryDy=0;exitX=0.371;exitY=0.009;exitDx=0;exitDy=0;entryPerimeter=0;exitPerimeter=0;" parent="1" source="55" target="69" edge="1">
                    <mxGeometry width="160" relative="1" as="geometry">
                        <mxPoint x="-1162" y="24" as="sourcePoint"/>
                        <mxPoint x="-1002" y="24" as="targetPoint"/>
                    </mxGeometry>
                </mxCell>
                <mxCell id="NY4owkkx7TGqezFvGEzK-143" value="" style="endArrow=diamondThin;endFill=0;endSize=24;html=1;rounded=0;entryX=0;entryY=0.5;entryDx=0;entryDy=0;exitX=1;exitY=0.5;exitDx=0;exitDy=0;" parent="1" source="47bcrhxyphqd8BRHlcOZ-59" target="47bcrhxyphqd8BRHlcOZ-40" edge="1">
                    <mxGeometry width="160" relative="1" as="geometry">
                        <mxPoint x="-88" y="-713" as="sourcePoint"/>
                        <mxPoint x="72" y="-713" as="targetPoint"/>
                    </mxGeometry>
                </mxCell>
                <mxCell id="NY4owkkx7TGqezFvGEzK-144" value="" style="endArrow=diamondThin;endFill=0;endSize=24;html=1;rounded=0;entryX=0.996;entryY=0.795;entryDx=0;entryDy=0;exitX=-0.003;exitY=0.224;exitDx=0;exitDy=0;entryPerimeter=0;exitPerimeter=0;" parent="1" source="47bcrhxyphqd8BRHlcOZ-32" target="3" edge="1">
                    <mxGeometry width="160" relative="1" as="geometry">
                        <mxPoint x="-189" y="86" as="sourcePoint"/>
                        <mxPoint x="-29" y="86" as="targetPoint"/>
                    </mxGeometry>
                </mxCell>
                <mxCell id="NY4owkkx7TGqezFvGEzK-145" value="" style="endArrow=diamondThin;endFill=0;endSize=24;html=1;rounded=0;entryX=1;entryY=0.5;entryDx=0;entryDy=0;edgeStyle=orthogonalEdgeStyle;" parent="1" source="47bcrhxyphqd8BRHlcOZ-27" target="4031oEJd7GCodYw7584o-13" edge="1">
                    <mxGeometry width="160" relative="1" as="geometry">
                        <mxPoint x="88" y="269" as="sourcePoint"/>
                        <mxPoint x="248" y="269" as="targetPoint"/>
                    </mxGeometry>
                </mxCell>
                <mxCell id="NY4owkkx7TGqezFvGEzK-146" value="" style="endArrow=diamondThin;endFill=0;endSize=24;html=1;rounded=0;exitX=1;exitY=0.5;exitDx=0;exitDy=0;entryX=0.868;entryY=1.09;entryDx=0;entryDy=0;entryPerimeter=0;edgeStyle=orthogonalEdgeStyle;" parent="1" source="47bcrhxyphqd8BRHlcOZ-33" target="47bcrhxyphqd8BRHlcOZ-48" edge="1">
                    <mxGeometry width="160" relative="1" as="geometry">
                        <mxPoint x="50" y="-340" as="sourcePoint"/>
                        <mxPoint x="210" y="-340" as="targetPoint"/>
                        <Array as="points">
                            <mxPoint x="261" y="104"/>
                        </Array>
                    </mxGeometry>
                </mxCell>
                <mxCell id="NY4owkkx7TGqezFvGEzK-147" value="" style="endArrow=diamondThin;endFill=0;endSize=24;html=1;rounded=0;entryX=0.313;entryY=0.987;entryDx=0;entryDy=0;exitX=0.75;exitY=0;exitDx=0;exitDy=0;edgeStyle=orthogonalEdgeStyle;entryPerimeter=0;" parent="1" source="47bcrhxyphqd8BRHlcOZ-27" target="47bcrhxyphqd8BRHlcOZ-15" edge="1">
                    <mxGeometry width="160" relative="1" as="geometry">
                        <mxPoint x="214" y="170" as="sourcePoint"/>
                        <mxPoint x="374" y="170" as="targetPoint"/>
                    </mxGeometry>
                </mxCell>
                <mxCell id="NY4owkkx7TGqezFvGEzK-148" value="" style="endArrow=diamondThin;endFill=0;endSize=24;html=1;rounded=0;entryX=1;entryY=0.5;entryDx=0;entryDy=0;exitX=0;exitY=0.5;exitDx=0;exitDy=0;edgeStyle=orthogonalEdgeStyle;" parent="1" source="34" target="eqyPjIkJq11NoU5mD4Jg-13" edge="1">
                    <mxGeometry width="160" relative="1" as="geometry">
                        <mxPoint x="-130" y="-641" as="sourcePoint"/>
                        <mxPoint x="30" y="-641" as="targetPoint"/>
                    </mxGeometry>
                </mxCell>
                <mxCell id="NY4owkkx7TGqezFvGEzK-149" value="" style="endArrow=diamondThin;endFill=0;endSize=24;html=1;rounded=0;exitX=0.5;exitY=0;exitDx=0;exitDy=0;" parent="1" source="47bcrhxyphqd8BRHlcOZ-12" target="47bcrhxyphqd8BRHlcOZ-9" edge="1">
                    <mxGeometry width="160" relative="1" as="geometry">
                        <mxPoint x="419" y="277" as="sourcePoint"/>
                        <mxPoint x="579" y="277" as="targetPoint"/>
                    </mxGeometry>
                </mxCell>
                <mxCell id="NY4owkkx7TGqezFvGEzK-150" value="" style="endArrow=diamondThin;endFill=0;endSize=24;html=1;rounded=0;entryX=0;entryY=0.5;entryDx=0;entryDy=0;exitX=1;exitY=0.5;exitDx=0;exitDy=0;" parent="1" source="47bcrhxyphqd8BRHlcOZ-31" target="47bcrhxyphqd8BRHlcOZ-53" edge="1">
                    <mxGeometry width="160" relative="1" as="geometry">
                        <mxPoint x="232" y="-82" as="sourcePoint"/>
                        <mxPoint x="392" y="-82" as="targetPoint"/>
                    </mxGeometry>
                </mxCell>
                <mxCell id="NY4owkkx7TGqezFvGEzK-151" value="" style="endArrow=diamondThin;endFill=0;endSize=24;html=1;rounded=0;entryX=0.494;entryY=1;entryDx=0;entryDy=0;entryPerimeter=0;exitX=0.5;exitY=0;exitDx=0;exitDy=0;" parent="1" source="47bcrhxyphqd8BRHlcOZ-50" target="116" edge="1">
                    <mxGeometry width="160" relative="1" as="geometry">
                        <mxPoint x="280" y="-96" as="sourcePoint"/>
                        <mxPoint x="440" y="-96" as="targetPoint"/>
                    </mxGeometry>
                </mxCell>
                <mxCell id="NY4owkkx7TGqezFvGEzK-152" value="" style="endArrow=diamondThin;endFill=0;endSize=24;html=1;rounded=0;entryX=0.5;entryY=0;entryDx=0;entryDy=0;exitX=1;exitY=0.5;exitDx=0;exitDy=0;edgeStyle=orthogonalEdgeStyle;" parent="1" source="35" target="47bcrhxyphqd8BRHlcOZ-42" edge="1">
                    <mxGeometry width="160" relative="1" as="geometry">
                        <mxPoint x="258" y="-391" as="sourcePoint"/>
                        <mxPoint x="418" y="-391" as="targetPoint"/>
                    </mxGeometry>
                </mxCell>
                <mxCell id="NY4owkkx7TGqezFvGEzK-153" value="" style="endArrow=diamondThin;endFill=0;endSize=24;html=1;rounded=0;entryX=1;entryY=0.5;entryDx=0;entryDy=0;exitX=0.25;exitY=0;exitDx=0;exitDy=0;edgeStyle=orthogonalEdgeStyle;" parent="1" source="47bcrhxyphqd8BRHlcOZ-27" target="36" edge="1">
                    <mxGeometry width="160" relative="1" as="geometry">
                        <mxPoint x="68" y="-209" as="sourcePoint"/>
                        <mxPoint x="228" y="-209" as="targetPoint"/>
                    </mxGeometry>
                </mxCell>
                <mxCell id="NY4owkkx7TGqezFvGEzK-154" value="" style="endArrow=diamondThin;endFill=0;endSize=24;html=1;rounded=0;entryX=1;entryY=0.5;entryDx=0;entryDy=0;exitX=1;exitY=0.5;exitDx=0;exitDy=0;edgeStyle=orthogonalEdgeStyle;" parent="1" source="34" target="4031oEJd7GCodYw7584o-6" edge="1">
                    <mxGeometry width="160" relative="1" as="geometry">
                        <mxPoint x="86" y="321" as="sourcePoint"/>
                        <mxPoint x="246" y="321" as="targetPoint"/>
                        <Array as="points">
                            <mxPoint x="521" y="-524"/>
                            <mxPoint x="521" y="291"/>
                        </Array>
                    </mxGeometry>
                </mxCell>
                <mxCell id="NY4owkkx7TGqezFvGEzK-157" value="" style="endArrow=diamondThin;endFill=0;endSize=24;html=1;rounded=0;entryX=1.015;entryY=0.095;entryDx=0;entryDy=0;exitX=0.003;exitY=0.321;exitDx=0;exitDy=0;exitPerimeter=0;entryPerimeter=0;edgeStyle=orthogonalEdgeStyle;" parent="1" source="47bcrhxyphqd8BRHlcOZ-48" target="47bcrhxyphqd8BRHlcOZ-1" edge="1">
                    <mxGeometry width="160" relative="1" as="geometry">
                        <mxPoint x="-119" y="-326" as="sourcePoint"/>
                        <mxPoint x="41" y="-326" as="targetPoint"/>
                        <Array as="points">
                            <mxPoint x="16" y="-477"/>
                            <mxPoint x="16" y="-217"/>
                        </Array>
                    </mxGeometry>
                </mxCell>
                <mxCell id="NY4owkkx7TGqezFvGEzK-158" value="" style="endArrow=diamondThin;endFill=0;endSize=24;html=1;rounded=0;entryX=1;entryY=0.5;entryDx=0;entryDy=0;exitX=0;exitY=0.5;exitDx=0;exitDy=0;edgeStyle=orthogonalEdgeStyle;" parent="1" source="47bcrhxyphqd8BRHlcOZ-9" target="47bcrhxyphqd8BRHlcOZ-5" edge="1">
                    <mxGeometry width="160" relative="1" as="geometry">
                        <mxPoint x="-3" y="-177" as="sourcePoint"/>
                        <mxPoint x="157" y="-177" as="targetPoint"/>
                        <Array as="points">
                            <mxPoint x="41" y="-270"/>
                            <mxPoint x="41" y="-173"/>
                        </Array>
                    </mxGeometry>
                </mxCell>
            </root>
        </mxGraphModel>
    </diagram>
</mxfile>